<svg version="1.0" xmlns="http://www.w3.org/2000/svg" width="600.000000pt" height="300.000000pt" viewBox="0 0 600.000000 300.000000" preserveAspectRatio="xMidYMid meet" style="width: 495.264px; height: auto;"> <g transform="translate(0.000000,300.000000) scale(0.100000,-0.100000)" fill="#000000" stroke="none"> <path d="M4934 2967 c-62 -39 -224 -152 -263 -184 -2 -1 -2 -5 1 -8 3 -3 16 4 30 15 14 10 29 16 33 12 5 -4 5 -1 1 6 -6 10 6 18 17 10 1 -1 15 10 31 25 15 14 37 29 47 32 11 4 19 11 19 16 0 5 5 9 11 9 6 0 25 11 41 26 17 14 37 23 44 20 7 -3 16 0 20 6 4 7 3 8 -4 4 -22 -13 -12 11 11 27 40 29 13 18 -39 -16z"></path> <path d="M5469 2993 c-3 -6 -7 -23 -8 -35 -1 -9 -4 -9 -12 2 -9 13 -10 13 -6 -2 3 -9 -1 -22 -9 -28 -8 -7 -14 -17 -14 -22 0 -16 -24 -34 -47 -35 -28 -2 -30 11 -4 29 13 9 17 19 11 27 -6 10 -9 8 -15 -8 -3 -11 -11 -21 -16 -21 -5 0 -9 -9 -9 -20 0 -11 -4 -20 -10 -20 -5 0 -10 6 -10 12 0 7 -12 0 -26 -15 -15 -16 -32 -26 -41 -23 -8 3 -12 2 -9 -2 6 -10 -102 -64 -113 -57 -5 2 -14 -2 -21 -10 -6 -8 -28 -19 -48 -26 -20 -6 -41 -15 -47 -19 -5 -5 -27 -11 -48 -15 -21 -4 -41 -13 -43 -20 -3 -7 -15 -11 -27 -10 -12 0 -26 -1 -32 -4 -5 -2 -22 -6 -39 -8 -16 -2 -34 -7 -40 -12 -6 -4 -24 -11 -39 -15 -22 -5 -27 -4 -21 6 5 10 4 11 -7 1 -16 -16 -53 -17 -80 -3 -13 8 -19 7 -19 0 0 -6 11 -15 24 -21 18 -9 44 -7 108 5 108 21 106 21 114 29 4 4 14 7 23 7 9 0 -12 -26 -49 -59 -36 -33 -69 -57 -73 -54 -5 3 -1 13 7 22 14 15 13 17 -3 17 -13 0 -17 -5 -13 -16 4 -11 -1 -10 -19 5 l-24 20 19 -23 19 -22 -34 5 c-33 5 -33 5 -5 -5 16 -5 33 -7 37 -4 4 2 10 0 13 -5 3 -5 -41 -53 -99 -108 -58 -55 -105 -106 -105 -114 0 -12 -2 -12 -9 0 -17 27 -141 -3 -141 -35 0 -3 7 -1 16 7 9 7 41 14 72 15 55 2 59 4 118 63 65 65 90 78 71 37 -7 -13 -15 -22 -18 -20 -4 2 -13 -4 -20 -14 -12 -15 -12 -16 2 -5 12 10 18 10 29 0 7 -6 11 -7 8 -2 -10 17 11 57 24 49 9 -5 8 -2 -1 9 -13 16 -2 29 100 131 l114 114 118 46 c125 49 205 87 249 117 29 21 54 24 63 8 8 -12 -24 -51 -36 -43 -5 3 -6 -3 -2 -12 5 -13 3 -16 -10 -11 -9 3 -19 1 -23 -5 -4 -7 -3 -8 4 -4 23 14 11 -10 -26 -50 -64 -71 -90 -104 -94 -116 -3 -7 -10 -8 -23 -1 -15 7 -24 6 -37 -8 -16 -17 -16 -18 3 -24 10 -4 19 -9 19 -13 0 -13 -39 -32 -53 -26 -7 2 -22 -4 -32 -16 -16 -18 -16 -20 -2 -20 10 0 17 -3 17 -8 0 -11 -38 -42 -52 -42 -6 0 -9 -3 -6 -6 4 -3 -4 -18 -17 -32 -13 -15 -40 -46 -60 -69 -21 -24 -42 -43 -49 -43 -6 0 -3 5 7 11 9 6 15 15 11 20 -4 6 -13 4 -25 -7 -17 -16 -18 -18 -2 -29 15 -11 15 -13 -5 -19 -22 -7 -21 -26 1 -26 7 0 40 33 74 73 35 39 82 93 105 118 79 85 348 408 408 488 47 64 55 79 39 78 -10 -1 -20 -3 -20 -4z m-94 -133 c-3 -5 -12 -10 -18 -10 -7 0 -6 4 3 10 19 12 23 12 15 0z m-235 -280 c0 -5 -2 -10 -4 -10 -3 0 -8 5 -11 10 -3 6 -1 10 4 10 6 0 11 -4 11 -10z m-56 -68 c3 -5 -1 -9 -9 -9 -8 0 -12 4 -9 9 3 4 7 8 9 8 2 0 6 -4 9 -8z"></path> <path d="M5025 2959 c-89 -46 -194 -108 -249 -148 -27 -19 -57 -37 -65 -38 -9 -2 -28 -5 -43 -7 -15 -2 -33 -8 -40 -13 -7 -6 -81 -64 -164 -129 -82 -66 -208 -166 -280 -224 -71 -57 -133 -105 -139 -105 -5 0 -32 -6 -60 -12 -55 -13 -330 -56 -495 -77 l-105 -14 -90 30 c-49 17 -102 37 -117 44 -15 8 -50 14 -78 14 -48 0 -50 1 -44 24 8 35 -10 40 -43 12 -16 -13 -39 -26 -51 -28 -20 -3 -20 -4 10 -21 28 -16 30 -16 17 -1 -12 15 -12 17 1 12 8 -3 23 -1 33 4 11 6 17 5 17 -2 0 -6 -7 -13 -15 -16 -13 -5 -28 -34 -30 -59 0 -5 -6 -9 -13 -7 -14 2 -16 -9 -4 -24 4 -5 0 -2 -9 7 -14 15 -19 15 -49 3 -56 -24 -59 -30 -42 -69 17 -36 32 -46 32 -20 0 13 3 13 20 3 19 -12 19 -13 -7 -20 -14 -4 -30 -5 -35 -2 -4 3 -11 -2 -14 -10 -3 -9 -10 -16 -16 -16 -5 0 -6 5 -3 10 9 14 -8 12 -30 -4 -22 -16 -14 -49 10 -40 13 5 13 9 3 23 -12 14 -11 15 5 2 15 -12 22 -12 42 -1 14 7 28 10 32 7 10 -11 -30 -37 -49 -33 -11 2 -18 -2 -18 -10 0 -21 33 -17 54 7 9 12 25 19 35 16 11 -3 17 2 18 14 1 10 -6 20 -15 22 -15 4 -14 5 2 6 12 1 16 6 12 17 -3 9 -6 18 -6 20 0 2 -7 4 -15 4 -8 0 -15 6 -15 13 0 8 -4 7 -10 -3 -9 -13 -11 -13 -20 0 -14 22 -12 30 8 24 14 -5 14 -4 2 4 -12 9 -9 13 13 21 37 14 44 14 50 -2 7 -19 -8 -41 -22 -33 -6 4 -11 3 -11 -2 0 -5 9 -12 20 -15 14 -3 21 1 27 17 6 19 7 19 13 -9 4 -18 2 -34 -5 -40 -12 -10 -12 -61 0 -73 7 -8 54 -9 49 -1 -2 3 21 26 51 50 30 24 54 48 52 53 -1 4 -23 10 -47 12 -30 2 -38 0 -25 -5 l20 -8 -20 -6 c-11 -4 -6 -5 13 -3 17 1 32 1 32 -1 0 -9 -73 -31 -86 -26 -14 5 -15 3 -5 -15 10 -18 9 -22 -4 -22 -10 0 -14 -5 -10 -12 4 -7 0 -4 -9 6 -14 18 -14 21 9 42 13 12 21 25 18 28 -11 11 20 36 46 37 23 2 23 2 4 6 -12 2 -31 -1 -42 -7 -16 -8 -21 -8 -22 2 0 7 -2 22 -4 33 -2 11 1 22 6 26 6 3 11 15 12 27 0 11 5 18 10 15 4 -3 15 3 22 13 9 12 14 14 15 6 0 -9 7 -11 19 -7 24 7 92 -72 72 -85 -10 -5 -8 -9 4 -14 22 -8 27 -8 21 3 -3 4 5 6 18 4 17 -4 30 4 49 27 15 17 27 27 27 21 0 -6 9 -11 21 -11 11 0 18 -4 14 -9 -3 -5 7 -11 22 -13 19 -2 28 -8 27 -20 -1 -10 2 -18 7 -18 5 0 9 5 9 11 0 6 6 9 14 6 7 -3 23 1 35 9 11 8 21 12 21 7 0 -4 4 -1 10 7 5 8 13 11 17 6 4 -5 2 -11 -6 -14 -21 -7 -76 -62 -63 -62 7 0 17 9 24 20 7 11 18 20 25 20 6 0 18 8 25 19 7 10 28 22 45 25 29 7 32 5 26 -11 -6 -16 -5 -16 10 -4 9 7 14 17 11 22 -3 5 6 5 20 -1 14 -5 28 -5 31 -1 3 5 20 9 37 10 18 0 81 9 141 19 73 13 107 16 107 8 0 -8 2 -8 8 0 4 6 32 17 62 24 30 7 71 19 90 26 19 7 51 15 70 17 39 4 96 40 235 147 111 85 152 119 182 148 13 12 28 22 32 22 14 0 20 26 9 41 -8 11 -9 10 -4 -3 7 -22 -26 -42 -42 -26 -9 9 -11 6 -8 -9 3 -12 -4 -25 -16 -34 -11 -8 -29 -23 -39 -33 -11 -11 -19 -16 -19 -11 0 4 -8 -2 -19 -13 -10 -12 -23 -22 -30 -22 -6 0 -11 -4 -11 -10 0 -5 -6 -10 -14 -10 -8 0 -17 -7 -20 -16 -3 -8 -11 -12 -17 -8 -8 4 -9 3 -5 -4 4 -7 1 -12 -8 -12 -9 0 -16 -5 -16 -11 0 -6 -7 -8 -16 -5 -8 3 -13 2 -10 -3 6 -10 -48 -63 -57 -56 -4 3 -5 2 -2 -2 9 -11 -35 -34 -54 -28 -11 3 -22 1 -26 -4 -4 -7 1 -8 11 -4 12 4 15 3 10 -5 -10 -16 -36 -15 -36 1 0 9 -3 8 -9 -2 -6 -9 -11 -10 -15 -2 -4 6 -2 12 3 12 6 1 14 2 19 3 6 1 54 41 87 73 7 7 16 9 20 5 5 -4 5 -2 1 5 -4 8 2 15 19 19 13 3 23 10 20 14 -3 5 -1 11 4 14 5 4 11 1 14 -6 2 -7 3 -5 2 5 -2 9 1 17 6 17 5 0 18 8 28 18 39 34 49 41 57 34 4 -4 4 -1 -1 7 -6 10 -3 12 12 7 13 -4 25 0 34 11 11 15 11 16 -1 6 -23 -21 -35 -15 -15 7 10 11 22 17 28 13 6 -3 7 -1 3 5 -6 11 5 16 26 13 4 0 18 13 32 30 14 17 26 27 26 23 0 -4 6 1 14 12 13 17 18 17 36 6 15 -9 20 -10 15 -2 -5 9 -1 10 16 6 19 -6 21 -5 7 4 -17 10 -18 44 -2 46 5 0 22 7 37 14 24 12 30 12 38 -1 5 -8 9 -9 9 -3 0 7 12 19 26 29 20 13 28 14 40 4 8 -6 15 -8 15 -3 1 5 2 14 3 20 2 19 35 45 47 38 8 -4 9 -3 5 4 -9 14 31 35 52 27 14 -5 14 -7 2 -15 -8 -5 -17 -7 -20 -5 -4 2 -7 -2 -7 -9 0 -11 10 -9 39 6 46 24 53 34 38 53 -10 13 -7 16 19 21 17 4 36 13 42 20 6 8 20 14 30 14 9 0 25 7 33 16 9 8 21 12 27 8 8 -4 9 -3 5 4 -11 18 -25 15 -91 -19z m-69 -70 c9 -16 -10 -31 -30 -23 -13 5 -14 9 -5 20 14 17 25 18 35 3z m-344 -176 c-6 -2 -9 -10 -6 -15 4 -7 2 -8 -5 -4 -13 9 -5 26 12 25 9 0 8 -2 -1 -6z m-82 -56 c0 -2 -10 -12 -22 -23 l-23 -19 19 23 c18 21 26 27 26 19z m-1317 -426 l48 -22 -23 -18 c-29 -24 -38 -20 -78 36 -24 32 -28 42 -14 35 10 -5 41 -19 67 -31z m-123 -155 c0 -3 -4 -8 -10 -11 -5 -3 -10 -1 -10 4 0 6 5 11 10 11 6 0 10 -2 10 -4z"></path> <path d="M5400 2924 c0 -8 5 -12 10 -9 6 4 8 11 5 16 -9 14 -15 11 -15 -7z"></path> <path d="M5068 2923 c6 -2 18 -2 25 0 6 3 1 5 -13 5 -14 0 -19 -2 -12 -5z"></path> <path d="M5485 2899 c-4 -6 -5 -12 -2 -15 2 -3 7 2 10 11 7 17 1 20 -8 4z"></path> <path d="M4725 2890 c-3 -6 1 -7 9 -4 18 7 21 14 7 14 -6 0 -13 -4 -16 -10z"></path> <path d="M5505 2877 c-4 -14 -14 -28 -23 -30 -15 -4 -15 -5 1 -6 17 -1 44 46 33 57 -3 2 -8 -7 -11 -21z"></path> <path d="M5145 2880 c-3 -5 -1 -10 4 -10 6 0 11 5 11 10 0 6 -2 10 -4 10 -3 0 -8 -4 -11 -10z"></path> <path d="M5419 2825 c-5 -22 -2 -45 6 -44 6 1 8 6 6 13 -2 6 -4 17 -4 24 0 12 -6 17 -8 7z"></path> <path d="M5376 2783 c-6 -14 -5 -15 5 -6 7 7 10 15 7 18 -3 3 -9 -2 -12 -12z"></path> <path d="M4900 2770 c-8 -5 -10 -10 -5 -10 6 0 17 5 25 10 8 5 11 10 5 10 -5 0 -17 -5 -25 -10z"></path> <path d="M5240 2766 c0 -2 7 -7 16 -10 8 -3 12 -2 9 4 -6 10 -25 14 -25 6z"></path> <path d="M4522 2751 c-11 -7 -10 -9 3 -14 11 -5 14 -3 9 5 -5 8 -2 9 10 5 10 -4 15 -3 11 3 -7 12 -16 12 -33 1z"></path> <path d="M5194 2739 c-4 -7 -3 -9 4 -5 5 3 13 0 15 -6 4 -9 6 -10 6 -1 1 17 -16 25 -25 12z"></path> <path d="M5113 2695 c0 -8 4 -12 9 -9 5 3 6 10 3 15 -9 13 -12 11 -12 -6z"></path> <path d="M4408 2658 c5 -5 16 -8 23 -6 8 3 3 7 -10 11 -17 4 -21 3 -13 -5z"></path> <path d="M4921 2633 c-5 -10 -12 -17 -15 -15 -3 1 -6 0 -6 -3 0 -14 14 -7 28 13 8 12 12 22 9 22 -3 0 -10 -8 -16 -17z"></path> <path d="M4803 2605 c0 -8 4 -12 9 -9 5 3 6 10 3 15 -9 13 -12 11 -12 -6z"></path> <path d="M5250 2609 c0 -5 5 -7 10 -4 6 3 10 8 10 11 0 2 -4 4 -10 4 -5 0 -10 -5 -10 -11z"></path> <path d="M2427 2564 c5 -13 3 -15 -7 -9 -10 6 -12 4 -6 -11 5 -10 12 -31 16 -45 4 -14 13 -34 19 -45 23 -39 110 -267 105 -276 -3 -4 -15 -8 -27 -8 -12 0 -28 -4 -36 -9 -9 -6 -21 -5 -32 2 -14 9 -22 8 -36 -5 -10 -9 -85 -32 -168 -53 -82 -20 -183 -48 -224 -61 -40 -14 -75 -23 -77 -21 -2 2 26 28 62 57 99 80 143 160 88 160 -25 0 -175 -74 -285 -141 -53 -33 -111 -62 -128 -65 -17 -4 -31 -13 -31 -21 0 -22 -29 -27 -49 -8 -11 9 -27 18 -37 19 -10 2 -28 20 -41 42 -12 21 -27 38 -33 36 -6 -1 -9 1 -7 6 3 4 -21 37 -54 72 -32 36 -59 72 -59 81 0 16 -30 49 -45 49 -5 0 1 -10 12 -22 11 -13 23 -37 26 -55 3 -17 38 -100 77 -184 38 -84 70 -157 70 -162 0 -4 -11 -7 -25 -5 -22 3 -36 25 -104 168 -43 91 -86 182 -95 203 -15 37 -15 39 4 44 11 3 20 10 20 15 0 6 -7 7 -16 4 -9 -3 -12 -2 -9 4 11 18 -79 52 -108 41 -65 -25 -58 -141 20 -323 40 -94 52 -112 68 -110 11 2 30 4 42 5 31 3 45 19 32 37 -8 12 -9 12 -7 -4 2 -10 -3 -21 -11 -24 -8 -3 -11 0 -7 6 3 6 1 14 -5 18 -8 4 -9 3 -5 -4 4 -7 3 -12 -3 -12 -5 0 -11 3 -14 8 -2 4 -2 1 -1 -5 2 -7 -5 -13 -16 -13 -14 0 -18 5 -13 17 5 11 3 14 -6 8 -10 -5 -11 -2 -6 14 4 14 1 23 -9 27 -9 3 -13 10 -10 15 3 5 0 9 -6 9 -6 0 -9 4 -5 9 3 5 1 13 -5 16 -6 4 -8 16 -5 28 4 15 3 18 -3 9 -7 -11 -11 -8 -15 10 -4 12 -7 35 -7 50 0 15 -4 29 -9 32 -5 3 -11 15 -14 27 -4 15 -2 19 9 15 8 -3 14 -1 14 4 0 6 -7 10 -15 10 -27 0 -16 19 18 30 l32 10 -32 -3 c-26 -3 -32 0 -30 15 2 9 7 21 11 25 7 8 11 9 37 12 5 0 7 6 3 13 -5 8 -2 9 10 5 10 -4 23 -7 29 -8 7 0 3 -5 -8 -10 -17 -8 -16 -9 8 -6 17 3 27 0 27 -8 0 -7 -12 -16 -27 -20 -16 -4 -23 -9 -16 -12 7 -2 9 -11 6 -19 -3 -8 0 -14 7 -14 6 0 9 4 5 9 -3 5 -1 12 5 16 5 3 10 -2 10 -12 0 -11 5 -24 12 -31 9 -9 9 -12 0 -12 -7 0 -12 5 -12 12 0 6 -3 8 -6 5 -11 -10 17 -67 37 -78 11 -5 19 -15 19 -22 0 -7 -4 -6 -10 3 -17 27 -10 2 15 -53 16 -35 33 -57 47 -62 19 -6 20 -8 6 -12 -16 -4 -16 -7 -3 -26 8 -12 14 -24 13 -27 -3 -14 44 -90 52 -85 6 4 10 2 10 -4 0 -6 -11 -13 -25 -17 -14 -3 -25 -10 -25 -15 0 -5 18 0 40 11 22 11 43 19 47 18 5 -1 24 4 44 11 28 11 35 19 31 33 -2 10 -11 18 -18 18 -21 0 -36 47 -23 73 9 20 9 20 -4 5 -17 -22 -23 -22 -31 -2 -3 8 -2 13 3 10 13 -9 20 29 9 50 -6 10 2 6 16 -11 14 -16 24 -38 22 -48 -4 -14 -2 -16 9 -7 10 9 16 7 24 -8 6 -11 8 -21 6 -24 -2 -2 7 -4 20 -4 31 0 31 4 3 17 -19 8 -17 9 12 4 18 -3 37 -10 41 -16 3 -6 9 -10 13 -10 3 1 7 1 9 0 17 -4 132 -2 125 2 -17 11 50 16 69 5 16 -9 17 -8 3 9 -14 16 -13 17 8 11 16 -5 22 -3 22 7 0 16 -34 13 -55 -4 -6 -4 -42 -11 -80 -14 -38 -4 -72 -8 -76 -11 -7 -4 -34 24 -28 30 2 2 36 16 74 30 39 15 84 34 100 42 25 12 26 13 5 8 -18 -4 -11 4 24 30 41 29 53 33 65 23 11 -9 13 -9 8 0 -5 8 4 18 22 28 36 18 45 19 35 3 -4 -7 -3 -8 4 -4 7 4 12 13 12 21 0 8 8 11 23 8 18 -4 19 -3 7 6 -16 11 -9 14 29 11 14 -1 21 2 17 9 -4 7 -1 8 8 5 19 -7 22 -25 4 -22 -7 2 -12 -1 -13 -7 0 -5 -4 -16 -9 -24 -7 -11 -10 -11 -18 0 -7 11 -8 10 -6 -3 2 -9 -1 -17 -7 -18 -5 -1 -13 -8 -18 -15 -4 -8 -14 -12 -22 -8 -10 3 -13 1 -10 -9 4 -9 -9 -29 -33 -50 l-39 -35 29 -11 c17 -6 28 -7 28 -1 0 6 4 8 9 5 5 -3 25 1 45 9 20 9 42 13 48 9 7 -5 8 -2 3 6 -5 9 -4 11 4 6 7 -4 9 -17 6 -29 -5 -16 -1 -13 14 9 20 30 90 62 110 50 14 -9 71 5 65 15 -3 5 5 8 18 8 13 -1 39 5 58 14 19 8 47 13 62 12 15 -2 30 1 33 6 3 5 -1 6 -9 3 -11 -4 -16 0 -16 11 0 13 5 15 18 10 9 -5 33 -10 52 -12 27 -3 31 -2 20 6 -12 9 -10 11 12 11 15 0 33 6 40 13 6 8 22 11 35 9 13 -2 23 1 23 7 0 6 -8 11 -18 11 -14 0 -39 42 -101 168 -48 98 -79 175 -76 184 4 9 2 19 -4 23 -7 4 -8 0 -4 -11z m-1127 -389 c0 -5 -5 -3 -10 5 -5 8 -10 20 -10 25 0 6 5 3 10 -5 5 -8 10 -19 10 -25z m45 -81 c9 -15 12 -23 6 -20 -11 7 -35 46 -28 46 3 0 12 -12 22 -26z m142 -24 c8 -21 8 -32 1 -37 -7 -3 -8 -1 -4 5 4 7 1 12 -8 12 -10 0 -13 6 -9 17 4 9 2 14 -3 10 -5 -3 -10 3 -10 13 0 26 20 14 33 -20z m-122 -20 c3 -5 1 -10 -4 -10 -6 0 -11 5 -11 10 0 6 2 10 4 10 3 0 8 -4 11 -10z"></path> <path d="M4856 2558 c3 -5 10 -6 15 -3 13 9 11 12 -6 12 -8 0 -12 -4 -9 -9z"></path> <path d="M2457 2543 c3 -7 6 -13 8 -13 2 0 5 6 8 13 3 8 -1 14 -8 14 -7 0 -11 -6 -8 -14z"></path> <path d="M4833 2535 c0 -8 4 -12 9 -9 5 3 6 10 3 15 -9 13 -12 11 -12 -6z"></path> <path d="M5156 2531 c-3 -4 4 -7 14 -6 27 2 33 10 10 12 -11 1 -22 -2 -24 -6z"></path> <path d="M4654 2491 c9 -10 13 -22 9 -26 -5 -5 0 -3 10 4 19 15 10 33 -19 37 -14 2 -14 1 0 -15z"></path> <path d="M4776 2462 c-3 -5 1 -9 9 -9 8 0 12 4 9 9 -3 4 -7 8 -9 8 -2 0 -6 -4 -9 -8z"></path> <path d="M2405 2429 c-4 -6 -5 -12 -2 -15 2 -3 7 2 10 11 7 17 1 20 -8 4z"></path> <path d="M4567 2434 c-3 -4 -2 -14 3 -24 5 -10 7 -20 5 -24 -3 -3 3 1 12 9 16 13 16 17 2 30 -8 9 -18 13 -22 9z m21 -29 c-3 -3 -9 2 -12 12 -6 14 -5 15 5 6 7 -7 10 -15 7 -18z"></path> <path d="M4087 2416 c-4 -10 -1 -13 8 -9 8 3 12 9 9 14 -7 12 -11 11 -17 -5z"></path> <path d="M4097 2393 c-3 -5 6 -9 20 -10 19 -1 22 1 12 8 -17 11 -26 11 -32 2z"></path> <path d="M1329 2343 c-13 -15 -12 -15 9 -4 23 12 28 21 13 21 -5 0 -15 -7 -22 -17z"></path> <path d="M3080 2351 c0 -7 -5 -9 -12 -5 -7 5 -8 3 -3 -5 5 -9 10 -10 18 -2 6 6 8 14 4 18 -4 3 -7 1 -7 -6z"></path> <path d="M4857 2343 c3 -7 6 -13 8 -13 2 0 5 6 8 13 3 8 -1 14 -8 14 -7 0 -11 -6 -8 -14z"></path> <path d="M4906 2348 c3 -5 10 -6 15 -3 13 9 11 12 -6 12 -8 0 -12 -4 -9 -9z"></path> <path d="M4580 2312 c0 -4 10 -9 22 -9 18 -2 20 0 8 7 -18 12 -30 13 -30 2z"></path> <path d="M4605 2287 c-122 -39 -156 -254 -63 -389 11 -16 16 -33 13 -38 -4 -6 -3 -10 2 -9 22 4 32 -2 27 -16 -4 -9 7 -30 25 -50 17 -20 31 -38 31 -41 0 -11 -38 17 -53 39 -9 13 -22 30 -29 38 -16 17 -42 71 -40 82 4 15 -71 10 -117 -9 -48 -20 -34 -26 18 -8 24 8 51 12 61 9 24 -8 73 -91 64 -108 -4 -6 -3 -9 1 -4 8 7 75 -50 75 -64 0 -4 -14 -12 -31 -18 -26 -9 -33 -7 -52 11 l-22 22 28 -17 c37 -24 34 -10 -8 36 -34 37 -60 43 -48 10 5 -13 2 -15 -11 -10 -11 5 -15 3 -10 -5 5 -8 2 -9 -9 -5 -10 3 -17 2 -17 -3 0 -13 16 -13 39 0 15 7 24 1 51 -35 29 -39 35 -42 56 -33 13 6 22 13 19 16 -3 3 5 10 18 17 19 9 22 19 22 63 -1 44 -5 57 -26 75 -15 12 -25 29 -23 37 2 8 6 27 10 41 4 17 0 31 -10 42 -9 9 -13 24 -10 34 5 17 4 17 -10 -1 -14 -17 -14 -20 0 -31 12 -8 15 -20 9 -44 -6 -28 -29 -40 -30 -15 -1 5 -6 19 -13 30 -6 12 -8 24 -5 28 3 3 1 6 -6 6 -7 0 -9 10 -6 28 5 23 4 24 -5 7 -9 -18 -10 -17 -7 8 3 15 1 27 -3 27 -9 0 4 85 19 123 6 16 9 33 5 38 -3 5 2 12 10 15 9 3 14 10 11 14 -2 4 5 16 18 26 12 10 16 12 10 4 -27 -30 -12 -37 17 -9 16 17 34 28 39 24 5 -3 -6 -20 -25 -39 -28 -27 -32 -35 -19 -40 9 -3 13 -2 10 4 -3 6 -1 10 5 10 6 0 8 5 4 11 -4 7 -1 10 7 7 13 -4 44 26 49 47 3 15 -33 23 -65 12z m16 -479 c11 -21 11 -22 -4 -9 -10 7 -17 17 -17 22 0 15 9 10 21 -13z"></path> <path d="M4345 2280 c-8 -13 5 -13 25 0 13 8 13 10 -2 10 -9 0 -20 -4 -23 -10z"></path> <path d="M4486 2278 c-21 -8 -25 -13 -15 -19 10 -6 8 -9 -8 -9 -12 0 -25 -4 -28 -10 -9 -14 7 -12 46 5 19 8 27 14 19 15 -13 0 -13 1 0 10 20 13 33 12 24 -2 -4 -7 -3 -8 4 -4 16 10 15 26 0 25 -7 0 -26 -5 -42 -11z"></path> <path d="M4775 2281 c11 -5 23 -7 27 -5 4 3 9 0 13 -6 4 -6 11 -8 16 -5 20 13 7 22 -33 23 -31 0 -37 -2 -23 -7z"></path> <path d="M4936 2273 c-6 -14 -5 -15 5 -6 7 7 10 15 7 18 -3 3 -9 -2 -12 -12z"></path> <path d="M2858 2262 c-25 -9 -56 -26 -68 -37 -21 -19 -134 -49 -124 -33 3 4 2 8 -3 8 -12 0 -45 -74 -46 -106 -1 -16 -6 -32 -12 -36 -6 -5 -5 -8 3 -8 8 0 10 -8 7 -23 -6 -23 19 -57 32 -44 3 4 -1 9 -8 12 -11 4 -13 19 -9 68 7 76 25 114 46 96 15 -13 19 -23 5 -15 -13 9 -30 -17 -36 -55 -5 -30 -3 -35 14 -35 11 0 18 4 15 7 -2 4 0 10 6 14 5 3 10 11 10 17 0 7 -5 6 -14 -1 -10 -8 -16 -9 -21 -1 -3 5 -1 10 5 10 6 0 9 4 5 10 -8 12 57 30 70 19 16 -15 22 -10 19 16 -2 26 39 76 61 74 5 0 4 -3 -3 -6 -6 -2 -9 -10 -6 -15 4 -6 2 -8 -3 -5 -6 4 -14 0 -17 -9 -8 -21 -8 -159 0 -151 4 4 6 37 6 74 -1 56 2 69 19 81 12 8 18 20 14 30 -3 8 0 19 7 24 21 13 31 9 18 -7 -6 -8 -9 -18 -6 -23 3 -6 -1 -15 -9 -22 -8 -7 -15 -25 -15 -40 0 -30 36 -84 50 -75 14 9 -1 37 -16 31 -8 -3 -14 1 -14 10 0 9 5 12 12 8 7 -4 8 -3 4 5 -4 6 -12 8 -18 5 -6 -4 -6 2 1 15 7 11 16 21 22 21 5 0 14 11 21 25 6 13 16 21 21 18 6 -4 27 -7 47 -7 31 -1 36 2 32 17 -5 20 -49 57 -66 56 -6 0 -32 -8 -58 -17z m52 -12 c0 -14 -28 -19 -33 -6 -3 6 4 13 14 13 10 1 19 -2 19 -7z m30 -9 c0 -5 -7 -12 -16 -15 -14 -5 -15 -4 -4 9 14 17 20 19 20 6z m-195 -82 c7 -7 0 -8 -20 -3 -16 3 -34 11 -40 17 -7 6 0 7 20 3 17 -4 35 -12 40 -17z"></path> <path d="M4665 2237 c-19 -22 -35 -44 -35 -49 0 -11 18 -10 25 2 4 6 10 8 14 6 4 -3 18 8 30 24 15 21 30 30 49 29 l27 -1 -28 -10 c-33 -12 -65 -75 -46 -92 9 -8 10 -8 5 1 -9 17 34 81 59 87 11 3 21 1 23 -4 2 -5 10 -6 19 -3 10 4 14 2 10 -4 -4 -6 0 -14 9 -17 8 -3 12 -2 9 4 -3 5 10 0 29 -13 45 -28 45 -34 1 -29 -48 6 -45 -15 3 -24 84 -14 97 -20 96 -42 0 -12 4 -22 10 -22 6 0 -5 -9 -24 -19 -19 -11 -34 -24 -32 -31 2 -8 -4 -8 -20 1 -19 9 -21 9 -10 -2 14 -16 16 -33 2 -24 -5 3 -10 1 -10 -6 0 -6 -8 -9 -19 -6 -14 3 -18 1 -14 -9 3 -9 -2 -14 -15 -14 -22 0 -35 -23 -21 -37 5 -5 1 -9 -11 -10 -13 -1 -17 3 -13 15 4 14 3 15 -6 2 -8 -12 -13 -12 -23 -2 -22 22 -29 13 -8 -10 14 -15 17 -24 9 -27 -7 -2 -19 5 -26 15 -8 11 -18 18 -23 17 -5 -2 -7 3 -4 11 3 8 -4 21 -16 29 -11 8 -19 20 -17 28 2 8 2 11 0 6 -3 -4 -9 -4 -15 -1 -6 4 -8 -2 -3 -17 5 -18 4 -20 -4 -9 -15 22 -22 7 -11 -26 5 -16 12 -47 17 -69 6 -29 13 -40 28 -42 11 -2 14 0 8 3 -7 3 -13 10 -13 15 0 6 4 8 9 4 5 -3 12 -1 16 5 3 5 21 10 39 10 40 0 132 59 204 130 55 56 72 92 55 119 -30 49 -159 116 -269 141 -32 7 -37 5 -69 -33z m40 4 c-3 -6 -11 -11 -17 -11 -6 0 -6 6 2 15 14 17 26 13 15 -4z m-29 -33 c4 -7 4 -10 -1 -6 -4 4 -15 2 -24 -5 -14 -11 -14 -10 -2 6 16 20 18 21 27 5z m168 -256 c2 -4 -4 -9 -15 -9 -11 -1 -17 2 -14 8 7 11 22 12 29 1z m-146 -40 c8 -13 10 -22 4 -22 -13 0 -42 28 -42 42 0 15 22 4 38 -20z"></path> <path d="M4245 2240 c-33 -16 -63 -30 -68 -30 -17 0 -88 -55 -77 -58 7 -3 15 -1 19 4 10 15 101 66 121 68 11 2 80 37 80 41 0 9 -15 4 -75 -25z"></path> <path d="M1210 2241 c0 -5 9 -19 21 -32 18 -22 19 -22 10 -3 -6 12 -8 24 -5 26 3 3 -2 8 -11 11 -8 4 -15 3 -15 -2z"></path> <path d="M2484 2228 c1 -34 2 -34 17 -7 6 13 7 19 1 15 -6 -3 -12 0 -15 6 -2 7 -4 1 -3 -14z"></path> <path d="M3051 2231 c-9 -6 6 -27 55 -75 38 -36 74 -66 82 -66 7 0 11 -4 8 -9 -4 -5 4 -7 16 -3 14 3 19 1 14 -6 -3 -6 -2 -13 3 -16 5 -4 8 2 7 11 -2 10 2 22 8 26 6 5 1 6 -11 2 -17 -5 -34 5 -76 42 -29 26 -62 60 -73 75 -13 18 -24 24 -33 19z"></path> <path d="M1190 2202 c0 -5 7 -9 15 -9 8 0 12 4 9 9 -3 4 -9 8 -15 8 -5 0 -9 -4 -9 -8z"></path> <path d="M1466 2189 c2 -4 13 -7 24 -6 23 2 17 10 -10 12 -10 1 -17 -2 -14 -6z"></path> <path d="M3662 2177 c-12 -13 -22 -27 -22 -33 0 -5 11 4 25 20 14 16 25 31 25 33 0 7 -8 2 -28 -20z"></path> <path d="M4998 2178 c-9 -5 -6 -7 9 -5 12 2 25 6 28 8 8 9 -23 6 -37 -3z"></path> <path d="M3505 2170 c-3 -6 1 -7 9 -4 18 7 21 14 7 14 -6 0 -13 -4 -16 -10z"></path> <path d="M3575 2170 c-4 -6 1 -7 11 -3 13 5 15 3 9 -7 -5 -9 -4 -11 4 -6 6 4 9 12 6 17 -8 12 -22 12 -30 -1z"></path> <path d="M4460 2170 c-8 -5 -11 -12 -7 -16 4 -4 13 -2 19 4 15 15 7 24 -12 12z"></path> <path d="M1485 2159 c-3 -4 2 -6 10 -5 21 3 28 13 10 13 -9 0 -18 -4 -20 -8z"></path> <path d="M4370 2160 c0 -5 5 -10 10 -10 6 0 10 5 10 10 0 6 -4 10 -10 10 -5 0 -10 -4 -10 -10z"></path> <path d="M4659 2168 c-5 -17 -4 -50 3 -60 7 -10 8 -9 5 2 -2 8 0 25 4 38 5 13 5 22 -1 22 -6 0 -10 -1 -11 -2z"></path> <path d="M3518 2155 c-3 -6 0 -16 8 -22 7 -8 15 -9 19 -3 3 5 13 7 23 4 15 -5 15 -5 -1 6 -9 6 -21 9 -26 5 -5 -3 -11 0 -13 7 -3 7 -7 8 -10 3z"></path> <path d="M3794 2148 c-5 -7 -3 -8 6 -3 9 6 12 4 8 -7 -4 -8 0 -15 7 -15 10 0 11 5 4 19 -11 21 -15 22 -25 6z"></path> <path d="M4053 2148 c-13 -6 -23 -17 -23 -24 0 -9 8 -7 25 8 35 30 34 34 -2 16z"></path> <path d="M1960 2140 c-9 -6 -10 -10 -3 -10 6 0 15 5 18 10 8 12 4 12 -15 0z"></path> <path d="M2117 2137 c-3 -8 1 -14 9 -14 16 0 19 13 5 21 -5 3 -11 0 -14 -7z"></path> <path d="M3256 2135 c-11 -8 -15 -15 -9 -15 6 0 16 7 23 15 16 19 11 19 -14 0z"></path> <path d="M3765 2140 c-3 -5 -1 -10 4 -10 6 0 11 5 11 10 0 6 -2 10 -4 10 -3 0 -8 -4 -11 -10z"></path> <path d="M4355 2142 c4 -8 0 -21 -10 -32 -10 -11 -18 -34 -19 -52 -1 -32 -3 -33 -50 -36 -38 -2 -47 0 -43 10 6 17 -39 23 -49 7 -4 -7 1 -9 15 -4 15 4 21 2 21 -8 0 -10 -17 -17 -52 -21 -29 -4 -93 -13 -143 -21 -49 -7 -116 -17 -147 -20 -40 -4 -58 -11 -58 -20 0 -12 6 -11 37 1 21 9 56 14 85 12 26 -1 48 1 48 6 0 5 15 6 33 2 20 -4 27 -3 18 3 -11 7 -8 9 10 10 60 2 125 9 139 14 23 8 70 15 70 10 0 -3 -10 -13 -22 -24 -19 -15 -20 -18 -6 -19 9 0 25 10 35 23 19 25 43 25 43 1 0 -7 -32 -28 -70 -45 -74 -34 -86 -45 -30 -29 19 5 36 8 38 6 2 -3 -15 -10 -38 -17 -29 -9 -44 -9 -48 -2 -8 12 -72 5 -72 -8 0 -5 15 -6 33 -4 l32 5 -33 -11 c-28 -8 -36 -7 -45 5 -12 15 -32 17 -53 4 -6 -4 -29 -9 -51 -10 -31 -2 -39 -7 -35 -18 4 -11 0 -10 -15 3 -17 15 -26 16 -42 8 -11 -6 -37 -11 -58 -11 -22 0 -44 -5 -51 -12 -9 -9 -12 -5 -11 17 0 17 3 25 5 18 4 -8 21 -10 52 -6 56 6 68 13 23 13 -19 0 -30 4 -26 10 3 6 17 10 31 10 14 0 23 4 20 9 -8 12 -57 1 -62 -14 -3 -7 -14 -11 -24 -8 -11 3 -26 -2 -35 -10 -19 -19 -19 -25 -1 -43 11 -11 21 -12 41 -4 14 5 28 10 31 10 10 0 3 -48 -11 -66 -8 -10 -14 -35 -15 -54 0 -40 14 -69 24 -51 4 6 34 25 66 41 l59 30 6 -45 7 -44 65 44 c36 25 69 45 73 45 5 0 11 -22 15 -50 4 -27 11 -52 16 -56 5 -3 7 1 4 8 -3 8 21 28 62 53 59 35 71 48 97 100 21 42 30 75 30 112 1 56 4 61 25 41 11 -11 12 -8 6 12 -4 14 -10 31 -13 39 -4 11 1 12 24 7 19 -4 24 -3 15 3 -10 6 0 12 35 19 27 6 52 8 56 6 4 -3 8 -1 8 3 0 5 -9 14 -21 21 -12 8 -18 9 -15 3 4 -5 2 -12 -4 -16 -5 -3 -10 0 -10 7 0 10 -3 9 -10 -2 -5 -8 -13 -11 -17 -6 -4 4 2 16 14 26 12 9 19 20 16 23 -8 9 -45 -41 -39 -52 7 -10 -33 -23 -47 -14 -5 3 -3 10 4 15 11 7 11 11 1 15 -9 3 -6 13 9 35 17 24 19 32 9 41 -10 9 -11 9 -5 -1z m-52 -224 c-6 -7 -9 -21 -8 -30 2 -10 -1 -18 -6 -18 -5 0 -9 -11 -9 -24 0 -32 -10 -57 -20 -51 -5 3 -12 0 -16 -6 -4 -8 -3 -9 4 -5 7 4 12 3 12 -2 0 -13 -39 -44 -92 -74 l-46 -26 -6 22 c-3 11 -1 22 4 24 5 2 -1 14 -15 28 -24 24 -41 32 -30 14 3 -5 1 -10 -4 -10 -6 0 -25 -12 -42 -27 -32 -29 -75 -51 -64 -32 4 5 -1 21 -10 35 -9 15 -15 34 -12 44 3 12 0 17 -9 13 -7 -2 -10 -11 -8 -18 7 -16 -51 -49 -68 -39 -6 4 -8 3 -5 -3 4 -6 -5 -15 -19 -22 -15 -6 -23 -7 -19 -1 3 5 1 10 -5 10 -7 0 -5 7 4 16 19 18 21 28 5 18 -7 -4 -10 -1 -7 7 3 8 10 14 15 14 6 0 15 4 20 9 5 5 3 6 -4 2 -7 -4 -13 -2 -13 3 0 6 6 11 13 12 10 0 10 2 0 6 -7 2 -13 12 -13 20 0 11 7 14 25 11 14 -3 25 0 26 6 0 6 3 5 6 -2 4 -9 8 -10 18 -2 10 9 16 6 25 -9 6 -12 16 -21 23 -21 8 0 8 3 -2 9 -10 7 -11 12 -1 27 6 11 10 12 7 4 -2 -8 2 -21 9 -28 11 -10 14 -10 14 0 0 9 3 9 11 -2 8 -12 9 -11 4 6 -4 17 1 24 25 34 16 7 37 9 47 5 10 -5 23 -7 28 -6 6 2 24 4 40 6 34 4 145 43 160 56 14 13 19 11 8 -3z"></path> <path d="M1998 2133 c7 -3 16 -2 19 1 4 3 -2 6 -13 5 -11 0 -14 -3 -6 -6z"></path> <path d="M3490 2130 c8 -5 20 -10 25 -10 6 0 3 5 -5 10 -8 5 -19 10 -25 10 -5 0 -3 -5 5 -10z"></path> <path d="M4541 2113 c2 -24 2 -25 6 -5 3 13 9 19 15 16 7 -4 8 -2 4 4 -13 21 -26 13 -25 -15z"></path> <path d="M4681 2124 c0 -11 3 -14 6 -6 3 7 2 16 -1 19 -3 4 -6 -2 -5 -13z"></path> <path d="M1230 2120 c-9 -6 -10 -10 -3 -10 6 0 15 5 18 10 8 12 4 12 -15 0z"></path> <path d="M1264 2110 c0 -13 4 -16 10 -10 7 7 7 13 0 20 -6 6 -10 3 -10 -10z"></path> <path d="M1901 2121 c-8 -5 -9 -11 -3 -15 5 -3 12 1 16 9 6 17 6 18 -13 6z"></path> <path d="M2587 2124 c-4 -4 -7 -14 -7 -22 0 -9 -8 -24 -17 -35 -17 -18 -17 -18 10 -6 15 7 26 18 23 25 -3 7 0 15 7 17 9 3 9 8 1 16 -6 6 -13 8 -17 5z"></path> <path d="M2720 2115 c0 -8 4 -15 10 -15 5 0 7 7 4 15 -4 8 -8 15 -10 15 -2 0 -4 -7 -4 -15z"></path> <path d="M3699 2128 c-1 -2 -3 -13 -4 -25 -2 -15 2 -20 12 -16 11 4 12 8 3 13 -7 4 -9 13 -6 19 4 6 5 11 2 11 -3 0 -7 -1 -7 -2z"></path> <path d="M3996 2114 c-11 -7 -17 -17 -13 -20 3 -4 14 1 23 10 21 22 15 28 -10 10z"></path> <path d="M1555 2111 c-3 -5 -2 -12 3 -15 5 -3 9 1 9 9 0 17 -3 19 -12 6z"></path> <path d="M3616 2105 c4 -8 11 -15 16 -15 6 0 5 6 -2 15 -7 8 -14 15 -16 15 -2 0 -1 -7 2 -15z"></path> <path d="M4825 2110 c3 -5 8 -10 11 -10 2 0 4 5 4 10 0 6 -5 10 -11 10 -5 0 -7 -4 -4 -10z"></path> <path d="M3571 2094 c0 -11 3 -14 6 -6 3 7 2 16 -1 19 -3 4 -6 -2 -5 -13z"></path> <path d="M3737 2103 c-4 -3 -7 -15 -7 -25 0 -21 -29 -24 -49 -5 -11 10 -13 9 -9 -3 3 -8 18 -16 34 -18 25 -2 31 2 41 28 10 28 6 39 -10 23z"></path> <path d="M4450 2090 c6 -11 12 -20 14 -20 2 0 2 9 -1 20 -3 11 -9 20 -15 20 -5 0 -4 -9 2 -20z"></path> <path d="M4850 2099 c0 -7 9 -9 21 -6 13 3 18 2 13 -3 -5 -4 -20 -10 -34 -13 -14 -2 -4 -4 21 -3 26 0 45 4 42 8 -2 5 6 7 18 5 12 -1 24 4 26 11 3 9 -11 12 -51 12 -35 0 -56 -4 -56 -11z"></path> <path d="M1687 2089 c7 -7 15 -10 18 -7 3 3 -2 9 -12 12 -14 6 -15 5 -6 -5z"></path> <path d="M1943 2081 c10 -12 9 -13 -8 -7 -15 5 -17 4 -8 -5 9 -9 17 -7 37 8 l25 20 -29 -1 c-23 -1 -26 -4 -17 -15z"></path> <path d="M2745 2090 c-3 -5 1 -10 10 -10 9 0 13 5 10 10 -3 6 -8 10 -10 10 -2 0 -7 -4 -10 -10z"></path> <path d="M3865 2090 c-3 -6 1 -7 9 -4 18 7 21 14 7 14 -6 0 -13 -4 -16 -10z"></path> <path d="M1130 2071 c0 -6 4 -13 10 -16 6 -3 7 1 4 9 -7 18 -14 21 -14 7z"></path> <path d="M2703 2069 c5 -16 -28 -44 -41 -35 -4 3 -8 -4 -9 -14 -2 -29 14 -33 31 -8 9 12 26 23 38 25 17 2 19 1 8 -6 -8 -5 -18 -7 -22 -5 -4 3 -8 0 -8 -5 0 -28 52 -1 64 33 5 16 4 17 -9 6 -11 -9 -15 -9 -15 -1 0 7 -5 9 -11 5 -6 -3 -16 0 -21 7 -8 11 -9 11 -5 -2z"></path> <path d="M2818 2073 c7 -3 16 -2 19 1 4 3 -2 6 -13 5 -11 0 -14 -3 -6 -6z"></path> <path d="M3130 2078 c0 -3 6 -11 14 -17 10 -9 17 -7 27 6 12 16 12 17 -2 6 -12 -10 -18 -10 -27 -1 -7 7 -12 9 -12 6z"></path> <path d="M3819 2063 c-13 -17 -13 -17 6 -3 11 8 22 16 24 17 2 2 0 3 -6 3 -6 0 -17 -8 -24 -17z"></path> <path d="M4692 2060 c0 -14 2 -19 5 -12 2 6 2 18 0 25 -3 6 -5 1 -5 -13z"></path> <path d="M3267 2058 c7 -8 11 -17 8 -20 -3 -2 2 -5 10 -5 21 0 19 10 -7 26 -20 13 -22 12 -11 -1z"></path> <path d="M1310 2051 c0 -6 4 -13 10 -16 6 -3 7 1 4 9 -7 18 -14 21 -14 7z"></path> <path d="M1876 2045 c-11 -8 -18 -15 -15 -16 28 -5 49 -4 49 3 0 4 -5 8 -11 8 -5 0 -7 5 -4 10 8 13 4 12 -19 -5z"></path> <path d="M2275 2045 c-19 -7 -37 -10 -40 -6 -4 3 -5 2 -3 -4 2 -5 -1 -10 -7 -10 -5 0 -9 4 -7 9 2 5 -4 4 -12 -4 -17 -14 -22 -25 -7 -15 5 3 12 1 16 -5 3 -5 1 -10 -4 -10 -6 0 -11 -7 -11 -16 0 -9 -6 -14 -13 -11 -8 3 -14 0 -14 -6 -1 -7 -4 -28 -7 -47 -10 -55 -14 -150 -6 -145 7 4 23 -51 18 -58 -2 -2 35 -48 64 -78 9 -9 14 -20 11 -23 -4 -3 2 -6 13 -6 11 0 32 -11 47 -25 15 -14 27 -23 27 -18 0 4 6 -1 13 -11 10 -14 23 -17 50 -14 20 2 37 0 37 -5 0 -6 -24 -7 -57 -3 -32 4 -72 7 -90 7 -18 -1 -35 4 -39 11 -4 7 -3 8 5 4 7 -5 24 -5 39 -1 25 7 25 8 7 15 -11 4 -31 6 -45 4 -14 -1 -34 -3 -45 -3 -17 -1 -18 -3 -5 -12 12 -9 11 -10 -5 -4 -11 4 -25 8 -30 9 -6 1 -21 12 -34 25 -12 12 -26 20 -29 16 -4 -4 1 -13 11 -20 11 -8 14 -16 8 -19 -5 -4 -14 2 -20 11 -7 13 -10 14 -11 4 0 -12 -3 -12 -17 0 -13 10 -39 14 -86 13 -57 -2 -69 1 -81 18 -8 11 -17 15 -20 10 -3 -6 0 -13 6 -16 7 -3 -9 -3 -37 0 -27 3 -52 9 -55 14 -3 4 -19 6 -37 5 -17 -1 -45 4 -62 11 -26 11 -30 18 -36 69 -5 35 -3 72 3 93 6 20 10 37 8 39 -2 3 -32 -14 -164 -95 -105 -64 -152 -81 -152 -57 0 10 5 13 12 9 7 -5 8 -3 3 6 -6 9 -4 12 7 8 8 -4 15 0 15 7 0 9 -6 11 -16 6 -9 -5 -22 -6 -30 -3 -10 3 -11 -1 -6 -18 4 -12 3 -20 -1 -17 -5 3 -15 -2 -22 -9 -12 -13 -9 -14 15 -9 27 6 27 6 9 -9 -11 -9 -29 -14 -40 -10 -14 3 -17 2 -9 -3 9 -6 -1 -16 -34 -32 -32 -15 -49 -19 -56 -12 -6 6 -18 11 -27 11 -9 0 -11 -3 -5 -8 23 -16 11 -31 -46 -56 -69 -30 -104 -35 -44 -7 48 23 42 27 -9 6 -23 -10 -34 -20 -30 -27 5 -8 2 -9 -10 -5 -11 5 -15 3 -10 -5 5 -8 -2 -9 -22 -4 -18 4 -24 3 -16 -2 11 -7 9 -10 -6 -14 -18 -5 -18 -3 -9 27 7 23 22 39 51 54 25 13 31 19 16 15 -22 -5 -21 -3 7 15 18 11 39 18 47 15 8 -3 17 -1 21 5 4 7 0 8 -11 4 -12 -4 -15 -3 -10 5 15 24 -17 11 -82 -35 -37 -26 -85 -59 -107 -74 -51 -34 -79 -65 -67 -73 5 -3 32 1 58 10 27 8 61 17 77 19 40 6 206 78 326 142 l103 55 47 -20 c54 -23 138 -42 187 -42 35 0 35 -1 29 -31 -5 -22 -4 -29 4 -25 6 4 11 2 11 -3 0 -14 -27 -14 -35 -1 -9 14 -48 13 -63 -2 -7 -7 -12 -19 -12 -29 0 -23 35 -65 60 -72 30 -8 71 33 69 69 -1 16 2 41 6 57 5 21 4 27 -8 27 -8 0 -17 6 -20 13 -2 6 -17 12 -33 12 -18 0 -28 5 -26 13 1 7 -3 12 -10 11 -29 -3 -40 2 -34 16 8 22 -2 18 -15 -6 -7 -13 -7 -19 -1 -15 6 3 13 2 17 -4 3 -5 -1 -10 -9 -10 -17 0 -63 57 -58 72 1 5 -3 6 -9 2 -8 -5 -9 -3 -4 5 4 8 18 10 34 7 14 -3 20 -3 13 0 -9 4 -7 11 9 25 26 23 34 19 49 -26 6 -19 16 -35 22 -35 6 0 5 6 -2 15 -7 9 -10 18 -7 21 3 4 0 13 -8 21 -20 19 -19 34 2 26 11 -4 14 -3 9 5 -5 8 0 12 13 12 12 0 21 -7 21 -15 0 -8 -7 -15 -16 -15 -13 0 -14 -3 -5 -13 6 -8 7 -18 3 -22 -4 -5 -1 -5 7 0 11 6 13 3 9 -13 -4 -12 -2 -22 4 -22 6 0 8 -8 6 -18 -5 -16 20 -43 37 -42 3 1 12 -6 20 -14 16 -16 115 -32 140 -22 8 3 15 2 15 -3 0 -5 46 -14 103 -21 56 -7 131 -18 167 -25 36 -7 72 -13 80 -13 8 0 71 -7 139 -16 130 -18 249 -56 360 -116 29 -16 58 -27 64 -23 5 3 7 1 3 -5 -3 -6 -2 -13 4 -17 6 -3 17 -19 25 -35 14 -27 13 -30 -10 -58 -18 -22 -22 -32 -13 -36 7 -3 4 -4 -7 -1 -14 3 -53 -14 -110 -48 -50 -29 -121 -70 -158 -91 -38 -21 -67 -39 -65 -41 5 -5 107 43 140 66 32 23 37 24 34 2 -2 -12 -24 -25 -64 -39 -34 -12 -59 -23 -56 -27 3 -3 -3 -4 -13 -3 -10 0 -17 -5 -15 -12 2 -10 -2 -10 -18 -2 -17 9 -28 7 -53 -9 -18 -11 -75 -44 -127 -74 -88 -52 -302 -186 -325 -205 -5 -4 -68 -48 -140 -97 -71 -49 -155 -106 -185 -127 -30 -22 -68 -48 -85 -58 -16 -10 -34 -23 -40 -27 -5 -5 -66 -51 -135 -102 -148 -110 -135 -100 -128 -107 6 -5 34 14 67 47 23 23 57 40 73 36 7 -2 10 -2 6 0 -18 10 -6 24 15 18 14 -4 17 -3 9 3 -10 7 -9 12 5 23 19 16 31 18 50 6 6 -4 15 -2 19 4 4 7 3 9 -4 5 -6 -3 -13 -2 -16 3 -8 12 20 34 33 27 5 -4 13 -1 17 5 4 8 3 9 -4 5 -7 -4 -12 -3 -12 2 0 12 21 29 40 34 8 2 23 11 34 20 41 36 155 108 168 106 7 -2 12 2 11 8 -1 6 10 17 25 24 15 7 39 19 54 26 14 8 33 14 41 14 18 0 90 40 95 52 2 5 9 5 14 2 6 -4 8 -3 5 3 -7 11 73 73 95 73 10 0 10 2 -1 9 -10 6 -22 1 -40 -15 -14 -13 -44 -33 -66 -44 -22 -11 -35 -20 -30 -20 12 0 -66 -49 -79 -50 -5 0 1 9 14 20 13 11 29 20 37 20 7 0 13 4 13 9 0 10 131 95 145 94 26 -2 54 -16 49 -25 -4 -5 7 -3 22 5 16 8 36 17 44 20 8 3 -9 4 -39 1 -63 -5 -62 0 5 26 27 11 43 19 37 20 -7 0 -31 -7 -53 -16 -23 -9 -44 -14 -47 -10 -4 3 -1 6 6 6 6 0 29 12 51 26 25 17 48 24 60 21 12 -3 36 1 53 9 32 15 10 13 -28 -2 -17 -7 -18 -5 -8 8 7 8 9 18 5 23 -4 4 9 5 28 1 19 -3 27 -3 17 2 -14 6 -7 13 38 35 31 15 60 25 65 22 5 -3 12 0 16 6 5 8 3 9 -6 4 -9 -6 -11 -4 -6 4 5 7 15 10 23 7 8 -3 27 -3 41 1 l27 6 -30 13 -30 13 30 -1 c17 -1 65 15 110 37 44 21 85 38 92 38 7 0 15 7 18 14 4 11 -1 13 -17 8 l-21 -7 21 28 c23 32 74 55 241 109 128 41 165 43 69 3 -34 -15 -62 -32 -60 -38 1 -6 -2 -9 -8 -5 -6 4 -18 1 -27 -7 -9 -7 -18 -12 -20 -10 -2 2 -17 0 -34 -3 -25 -6 -30 -11 -26 -27 5 -17 2 -19 -18 -15 -14 2 -22 0 -19 -4 3 -5 -11 -9 -31 -9 -25 0 -34 4 -29 12 4 6 3 8 -4 5 -7 -5 -7 -14 1 -31 10 -21 13 -22 24 -7 7 9 13 13 13 9 0 -3 24 0 53 8 28 8 65 11 81 8 18 -4 26 -2 22 4 -3 6 2 13 11 15 10 3 -8 3 -39 0 -35 -4 -58 -2 -58 4 0 12 169 50 260 59 36 4 72 11 80 16 9 5 -2 6 -30 3 -25 -4 -56 -8 -70 -9 -14 -2 -47 -6 -75 -10 l-50 -6 35 14 c19 8 49 21 65 30 17 9 40 16 52 16 12 0 24 3 26 8 3 4 -23 6 -56 6 -53 -1 -111 -16 -202 -50 -46 -17 9 27 64 52 116 53 183 153 162 245 -6 24 -15 45 -20 47 -6 2 -11 9 -11 15 0 7 -9 23 -20 37 -15 20 -21 23 -31 13 -11 -11 -10 -13 5 -13 9 0 14 -4 11 -10 -3 -5 1 -10 9 -10 19 0 20 -11 4 -29 -11 -11 -10 -13 3 -8 21 7 42 -36 34 -67 -5 -17 -4 -18 4 -6 19 26 13 -10 -9 -57 -12 -27 -26 -43 -37 -44 -10 0 -13 -3 -5 -6 22 -9 13 -25 -10 -17 -20 6 -21 5 -9 -10 12 -14 11 -16 -3 -16 -10 0 -15 -4 -12 -9 6 -10 -32 -23 -77 -26 -24 -2 -26 -1 -15 14 12 14 11 14 -4 2 -23 -17 -13 -33 15 -26 21 5 21 5 -1 -7 -23 -12 -32 -9 -36 14 -2 7 -6 20 -9 28 -7 21 -5 50 4 50 15 0 22 -22 9 -30 -9 -5 -9 -9 -1 -14 6 -4 11 -2 11 4 0 6 5 8 11 4 8 -4 8 0 0 15 -16 30 -50 46 -57 28 -6 -16 -44 -11 -44 6 0 6 -3 8 -6 4 -3 -3 -15 3 -27 14 -11 10 -29 19 -38 19 -10 0 -20 4 -23 9 -3 5 -22 12 -41 15 -22 5 -33 11 -29 18 4 6 3 8 -3 5 -6 -4 -29 2 -51 13 -23 11 -48 20 -57 20 -9 0 -14 4 -10 9 3 5 0 13 -6 17 -8 4 -9 3 -5 -4 4 -7 1 -12 -8 -12 -25 0 -19 25 9 40 41 22 54 121 26 193 -6 15 -8 27 -6 27 3 0 -2 18 -11 40 -9 22 -13 47 -10 55 3 9 2 13 -4 10 -9 -6 -14 8 -11 28 0 4 -3 7 -7 7 -4 0 -9 11 -10 25 -1 14 3 25 8 25 6 0 10 -8 10 -17 0 -9 2 -14 5 -11 4 3 3 17 -1 32 -5 23 -8 24 -21 10 -14 -14 -18 -13 -34 12 -20 31 -17 46 9 38 14 -5 15 -4 2 5 -19 14 -43 14 -35 1 3 -5 1 -10 -4 -10 -6 0 -11 4 -11 9 0 15 -58 18 -95 6z m70 -16 c17 -7 41 -26 53 -43 49 -72 108 -303 94 -373 -5 -29 -38 -53 -72 -53 -67 1 -179 85 -220 166 -51 100 -24 235 59 291 39 26 43 27 86 12z m-835 -348 c14 -26 0 -33 -30 -14 -14 8 -17 12 -8 9 12 -3 15 -1 11 10 -8 21 15 17 27 -5z m307 -87 c-3 -3 -12 -4 -19 -1 -8 3 -5 6 6 6 11 1 17 -2 13 -5z m-848 -87 c-12 -26 -48 -42 -62 -28 -5 5 5 18 21 29 16 12 32 19 36 15 3 -3 6 0 6 7 0 7 2 11 5 8 3 -3 1 -17 -6 -31z m715 -2 c-8 -24 -4 -21 -31 -29 -17 -6 -23 -3 -23 9 0 9 -4 14 -9 11 -8 -6 -23 18 -16 26 2 1 22 3 44 3 36 0 40 -2 35 -20z m1146 -139 c0 -3 -4 -8 -10 -11 -5 -3 -10 -1 -10 4 0 6 5 11 10 11 6 0 10 -2 10 -4z m-595 -486 c-3 -5 -12 -10 -18 -10 -7 0 -6 4 3 10 19 12 23 12 15 0z"></path> <path d="M2280 2010 c-8 -5 -10 -10 -5 -10 6 0 17 5 25 10 8 5 11 10 5 10 -5 0 -17 -5 -25 -10z"></path> <path d="M2253 1985 c0 -8 4 -12 9 -9 5 3 6 10 3 15 -9 13 -12 11 -12 -6z"></path> <path d="M2370 1981 c0 -6 4 -13 10 -16 6 -3 7 1 4 9 -7 18 -14 21 -14 7z"></path> <path d="M2279 1957 c-13 -7 -34 -32 -47 -57 -18 -36 -22 -54 -17 -90 9 -60 48 -125 93 -155 112 -73 158 -19 117 140 -33 127 -90 189 -146 162z m82 -43 c9 -12 9 -15 2 -10 -8 4 -13 2 -14 -6 0 -10 -2 -10 -6 0 -2 6 -9 10 -13 7 -5 -3 -12 0 -16 6 -4 7 -3 9 4 5 6 -3 13 -3 16 2 2 4 -6 8 -19 8 -16 0 -21 -4 -17 -15 4 -9 1 -12 -7 -7 -7 5 -21 0 -32 -10 -20 -18 -21 -18 -8 8 21 48 76 54 110 12z m-19 -41 c31 -35 48 -83 48 -131 0 -48 -9 -62 -40 -62 -21 0 -81 65 -91 99 -23 77 38 145 83 94z m76 -200 c-8 -20 -18 -31 -30 -30 -10 1 -18 5 -18 9 0 4 -6 5 -14 2 -8 -3 -17 -1 -20 4 -3 5 7 8 22 6 30 -3 61 23 54 46 -3 11 -1 12 7 5 8 -8 8 -19 -1 -42z"></path> <path d="M2297 1823 c-14 -13 -7 -50 14 -71 24 -26 39 -21 39 14 0 47 -31 80 -53 57z"></path> <path d="M2460 1670 c0 -5 5 -10 11 -10 5 0 7 5 4 10 -3 6 -8 10 -11 10 -2 0 -4 -4 -4 -10z"></path> <path d="M2431 1621 c-12 -8 -12 -12 2 -25 20 -20 34 -21 17 -1 -6 8 -9 19 -5 25 8 12 4 12 -14 1z"></path> <path d="M935 1500 c-3 -5 -1 -10 4 -10 6 0 11 5 11 10 0 6 -2 10 -4 10 -3 0 -8 -4 -11 -10z"></path> <path d="M3123 2045 c0 -8 4 -12 9 -9 5 3 6 10 3 15 -9 13 -12 11 -12 -6z"></path> <path d="M3182 2051 c-11 -7 -10 -9 3 -14 11 -5 14 -3 9 5 -5 8 -2 9 10 5 10 -4 15 -3 11 3 -7 12 -16 12 -33 1z"></path> <path d="M4541 2044 c0 -11 3 -14 6 -6 3 7 2 16 -1 19 -3 4 -6 -2 -5 -13z"></path> <path d="M2150 2046 c0 -2 8 -10 18 -17 15 -13 16 -12 3 4 -13 16 -21 21 -21 13z"></path> <path d="M2540 2036 c0 -2 7 -6 15 -10 8 -3 15 -1 15 4 0 6 -7 10 -15 10 -8 0 -15 -2 -15 -4z"></path> <path d="M2580 2025 c0 -8 2 -15 4 -15 2 0 6 7 10 15 3 8 1 15 -4 15 -6 0 -10 -7 -10 -15z"></path> <path d="M3786 2024 c-3 -8 -1 -25 5 -36 6 -11 8 -22 5 -25 -3 -3 -8 2 -12 11 -8 22 -23 21 -17 -2 5 -19 39 -27 49 -11 3 5 0 16 -6 24 -7 8 -10 24 -7 35 6 24 -8 27 -17 4z"></path> <path d="M4026 2026 c5 -13 44 -30 44 -19 0 7 -33 32 -42 33 -4 0 -5 -6 -2 -14z"></path> <path d="M4140 2030 c-12 -7 -10 -9 7 -7 12 0 19 5 17 9 -6 10 -6 10 -24 -2z"></path> <path d="M2500 2020 c0 -5 -7 -10 -15 -10 -8 0 -15 -5 -15 -10 0 -6 13 -4 30 5 33 17 38 25 15 25 -8 0 -15 -4 -15 -10z"></path> <path d="M3990 2019 c0 -5 5 -7 10 -4 6 3 10 8 10 11 0 2 -4 4 -10 4 -5 0 -10 -5 -10 -11z"></path> <path d="M4404 2014 c-18 -15 -18 -15 3 -5 27 13 36 14 29 2 -4 -5 4 -7 16 -4 14 3 18 1 12 -4 -8 -5 -5 -14 9 -28 20 -20 20 -20 8 3 -6 12 -8 22 -4 22 12 1 -29 30 -42 30 -6 0 -20 -7 -31 -16z"></path> <path d="M2050 2010 c-8 -5 -12 -12 -9 -15 4 -3 12 1 19 10 14 17 11 19 -10 5z"></path> <path d="M2770 2007 c0 -10 8 -17 18 -17 9 0 13 4 7 8 -5 4 -13 11 -17 16 -5 5 -8 2 -8 -7z"></path> <path d="M3880 2007 c14 -6 28 -16 32 -22 5 -6 8 -6 8 2 0 8 11 11 33 8 l32 -5 -30 10 c-16 6 -46 12 -65 14 -33 4 -34 3 -10 -7z"></path> <path d="M4606 2004 c-4 -9 -4 -19 -1 -22 2 -3 7 3 11 12 3 9 11 13 17 9 6 -3 7 -1 3 5 -10 17 -23 15 -30 -4z"></path> <path d="M2940 2001 c0 -6 -8 -10 -17 -10 -10 0 -70 -8 -133 -17 -63 -9 -143 -17 -177 -18 -33 0 -56 -4 -50 -8 7 -4 8 -8 2 -9 -24 -2 34 -18 68 -18 31 -1 41 -6 57 -33 12 -19 20 -51 20 -75 0 -31 7 -49 25 -68 37 -41 61 -110 47 -140 -10 -21 -19 -25 -52 -25 -38 0 -41 2 -69 58 -34 68 -69 178 -73 228 -1 19 -7 39 -13 44 -14 11 -11 -66 4 -103 8 -20 8 -34 0 -49 -6 -11 -8 -22 -5 -26 3 -3 6 0 6 7 0 9 3 9 14 -1 7 -7 11 -19 9 -25 -3 -7 0 -13 6 -13 6 0 11 -7 11 -16 0 -8 -4 -12 -10 -9 -5 3 -10 1 -10 -4 0 -6 9 -11 21 -11 11 0 17 -5 14 -10 -9 -14 4 -50 18 -50 7 0 18 -9 24 -19 10 -16 22 -19 60 -16 65 3 65 4 58 15 -3 6 2 10 12 11 10 0 13 3 6 6 -21 8 -15 23 10 24 l22 0 -21 9 c-22 9 -43 32 -27 29 24 -4 23 3 -1 25 -24 20 -25 24 -11 30 9 3 21 4 26 0 5 -3 9 0 9 5 0 6 -13 11 -30 11 -20 0 -30 5 -30 15 0 8 -5 15 -11 15 -5 0 -7 5 -4 10 3 6 2 10 -2 10 -5 0 -10 16 -11 36 -2 20 -7 45 -13 56 -5 10 -7 24 -3 30 5 7 3 8 -6 3 -10 -6 -12 -4 -7 7 3 10 0 15 -10 14 -9 0 -18 4 -20 9 -2 6 11 12 29 13 18 1 41 5 51 8 9 3 17 1 17 -5 0 -6 10 -11 23 -10 21 0 21 1 2 8 -22 9 -3 14 103 27 34 4 52 11 52 20 0 8 -2 14 -5 14 -3 0 -5 -4 -5 -9z m-287 -68 c-7 -2 -19 -2 -25 0 -7 3 -2 5 12 5 14 0 19 -2 13 -5z"></path> <path d="M4701 2004 c-1 -5 5 -18 12 -28 12 -17 14 -17 20 -2 4 10 1 16 -7 16 -8 0 -17 6 -19 13 -3 6 -6 7 -6 1z"></path> <path d="M1985 1990 c-3 -5 -1 -10 4 -10 6 0 11 5 11 10 0 6 -2 10 -4 10 -3 0 -8 -4 -11 -10z"></path> <path d="M2060 1974 c-8 -16 -16 -32 -18 -36 -2 -5 1 -8 7 -8 13 0 34 47 28 63 -1 5 -9 -4 -17 -19z"></path> <path d="M2685 1991 c-3 -5 0 -13 6 -17 8 -5 9 -3 4 6 -6 10 -4 12 9 7 10 -4 15 -3 11 3 -8 13 -22 13 -30 1z"></path> <path d="M2957 1986 c-3 -8 -30 -19 -59 -25 l-53 -10 55 5 c30 3 57 9 58 15 2 5 8 7 13 4 5 -4 6 1 3 9 -8 20 -10 20 -17 2z"></path> <path d="M3000 1974 c8 -10 10 -16 6 -12 -5 4 -22 0 -38 -10 -27 -16 -29 -20 -24 -62 7 -60 10 -72 20 -89 7 -10 5 -12 -3 -6 -10 6 -11 3 -2 -14 7 -11 16 -21 21 -21 12 0 13 -6 -5 60 -8 30 -15 69 -15 87 0 34 1 35 133 49 l57 6 0 -39 c0 -22 7 -63 16 -92 8 -29 14 -55 11 -57 -2 -2 -44 -9 -93 -15 -146 -17 -164 -21 -164 -30 0 -5 -15 -6 -32 -4 l-33 5 29 -10 c19 -6 36 -6 49 1 10 6 28 9 38 6 10 -3 19 -1 19 4 0 5 5 9 11 9 5 0 8 -4 5 -9 -8 -12 43 -5 59 9 12 10 15 10 15 -1 0 -10 3 -10 12 -1 9 9 16 8 32 -6 18 -16 19 -16 13 1 -4 10 -3 16 1 13 5 -3 19 1 33 8 13 7 51 13 84 14 33 1 103 7 155 13 185 19 170 19 170 -4 0 -18 2 -19 10 -7 25 38 6 41 -167 25 -81 -8 -167 -15 -190 -15 l-43 0 6 35 c4 25 1 37 -9 41 -8 3 -13 17 -12 34 1 17 -2 30 -8 30 -5 0 -7 6 -4 14 8 20 -13 43 -48 50 -21 5 -26 4 -15 -3 20 -14 -69 -12 -95 2 -19 9 -19 9 -5 -9z"></path> <path d="M1530 1962 c6 -13 14 -21 18 -18 3 4 -2 14 -12 24 -18 16 -18 16 -6 -6z"></path> <path d="M3550 1966 c0 -9 5 -16 10 -16 6 0 10 4 10 9 0 6 -4 13 -10 16 -5 3 -10 -1 -10 -9z"></path> <path d="M3650 1964 c0 -8 5 -12 10 -9 6 3 10 10 10 16 0 5 -4 9 -10 9 -5 0 -10 -7 -10 -16z"></path> <path d="M4108 1969 c-10 -5 -18 -17 -18 -24 0 -8 -5 -15 -11 -15 -6 0 -8 9 -3 23 6 22 6 22 -13 2 -19 -20 -19 -20 1 -31 12 -6 25 -7 31 -2 5 4 17 8 27 8 10 0 18 5 18 11 0 6 -9 8 -22 3 -20 -6 -21 -5 -6 10 21 21 23 20 48 -6 16 -18 20 -19 14 -5 -3 10 -15 22 -25 27 -21 12 -20 12 -41 -1z"></path> <path d="M4957 1966 c-16 -12 -16 -14 -2 -20 9 -3 13 -2 10 3 -3 6 3 14 12 20 10 6 14 10 8 10 -5 0 -18 -6 -28 -13z"></path> <path d="M4394 1953 c2 -9 8 -18 15 -19 6 -1 7 0 1 3 -5 2 -8 9 -5 13 3 5 1 11 -4 14 -5 4 -8 -2 -7 -11z"></path> <path d="M3708 1953 c12 -2 30 -2 40 0 9 3 -1 5 -23 4 -22 0 -30 -2 -17 -4z"></path> <path d="M3901 1933 c-8 -13 -10 -14 -11 -4 0 8 -3 12 -6 8 -8 -8 5 -47 17 -47 5 0 9 8 9 18 0 10 5 23 12 30 9 9 9 12 0 12 -6 0 -16 -8 -21 -17z"></path> <path d="M3931 1924 c-6 -15 -9 -29 -5 -33 4 -3 9 0 11 7 3 6 9 10 13 7 5 -3 7 4 5 16 -6 32 -10 32 -24 3z"></path> <path d="M3550 1934 c-1 -29 47 -58 71 -43 12 7 12 9 -1 10 -8 1 -19 1 -23 0 -5 -1 -17 9 -27 21 -11 13 -19 18 -20 12z"></path> <path d="M3650 1930 c0 -5 5 -10 10 -10 6 0 10 5 10 10 0 6 -4 10 -10 10 -5 0 -10 -4 -10 -10z"></path> <path d="M4350 1930 c0 -5 5 -10 11 -10 5 0 7 5 4 10 -3 6 -8 10 -11 10 -2 0 -4 -4 -4 -10z"></path> <path d="M1366 1922 c-2 -4 -30 -7 -60 -7 -31 0 -56 -3 -56 -7 0 -5 5 -8 10 -8 6 0 17 -18 26 -40 16 -39 41 -58 30 -22 -5 13 5 26 34 48 39 28 50 44 31 44 -6 0 -12 -4 -15 -8z m-16 -19 c-1 -10 -50 -46 -50 -37 0 11 32 44 42 44 4 0 8 -3 8 -7z"></path> <path d="M3520 1921 c0 -6 4 -13 10 -16 6 -3 7 1 4 9 -7 18 -14 21 -14 7z"></path> <path d="M1215 1912 c-5 -4 -11 -12 -12 -19 -3 -13 22 -12 34 2 5 4 2 5 -6 0 -11 -6 -13 -4 -8 8 7 19 6 20 -8 9z"></path> <path d="M2992 1908 c-16 -16 -15 -39 3 -65 9 -12 15 -26 14 -30 -4 -21 2 -43 11 -43 7 0 7 6 0 20 -8 14 -8 20 0 20 6 0 13 -7 16 -15 7 -18 44 -20 44 -2 0 9 2 9 8 -1 9 -13 42 -7 42 8 0 9 -41 7 -58 -4 -9 -5 -20 -2 -30 7 -12 13 -13 19 -3 31 8 9 17 13 22 11 4 -3 13 3 18 12 10 17 12 17 26 -1 8 -11 15 -15 15 -9 0 16 -35 43 -57 43 -11 0 -26 7 -33 15 -15 18 -22 19 -38 3z m42 -50 c-3 -5 -12 -4 -20 3 -7 6 -11 15 -8 21 3 5 12 4 20 -3 7 -6 11 -15 8 -21z"></path> <path d="M2019 1898 c-1 -7 -1 -17 0 -21 1 -4 -7 -3 -18 3 -27 14 -54 13 -45 -2 5 -7 2 -9 -9 -5 -12 4 -14 2 -10 -10 5 -11 3 -14 -6 -8 -10 6 -11 3 -2 -13 6 -11 8 -28 5 -36 -4 -9 0 -18 10 -22 9 -3 13 -11 9 -18 -3 -7 -1 -6 7 1 12 11 11 16 -6 29 -10 8 -13 13 -6 9 8 -4 12 4 12 29 0 62 18 48 30 -24 6 -38 15 -72 19 -75 5 -2 6 7 3 20 -7 38 17 125 35 125 12 0 14 -7 9 -27 -22 -92 -20 -105 26 -165 24 -32 49 -55 56 -53 7 3 10 0 7 -6 -4 -5 5 -21 20 -35 30 -28 48 -25 23 3 -32 36 -78 134 -93 198 -18 81 -18 85 -1 85 9 0 16 -18 20 -52 7 -49 77 -218 91 -218 3 0 1 9 -5 19 -15 29 -12 35 7 20 13 -11 13 -8 -2 13 -11 14 -22 24 -24 22 -6 -5 -32 64 -35 91 -1 11 -8 30 -15 43 -7 12 -10 31 -7 40 7 21 -31 49 -46 34 -12 -12 -40 -4 -32 9 3 5 -2 9 -10 9 -9 0 -17 -6 -17 -12z m-9 -48 c0 -5 -2 -10 -4 -10 -3 0 -8 5 -11 10 -3 6 -1 10 4 10 6 0 11 -4 11 -10z m72 -67 c1 -10 2 -25 4 -33 1 -8 2 -21 3 -28 1 -7 5 -10 11 -7 6 3 7 -1 4 -9 -3 -9 -1 -16 5 -16 5 0 16 -10 22 -22 11 -21 11 -22 -6 -8 -29 24 -62 84 -62 113 0 30 16 38 19 10z"></path> <path d="M4865 1901 c-6 -11 13 -26 22 -17 4 3 1 6 -6 6 -7 0 -9 5 -6 10 3 6 4 10 1 10 -3 0 -7 -4 -11 -9z"></path> <path d="M1386 1892 c-3 -5 1 -9 9 -9 8 0 12 4 9 9 -3 4 -7 8 -9 8 -2 0 -6 -4 -9 -8z"></path> <path d="M1788 1883 c7 -3 16 -2 19 1 4 3 -2 6 -13 5 -11 0 -14 -3 -6 -6z"></path> <path d="M2620 1857 c0 -46 12 -68 34 -65 41 6 30 69 -14 81 -15 4 -20 0 -20 -16z m40 -28 c0 -6 -4 -7 -10 -4 -5 3 -10 11 -10 16 0 6 5 7 10 4 6 -3 10 -11 10 -16z"></path> <path d="M3571 1864 c0 -11 3 -14 6 -6 3 7 2 16 -1 19 -3 4 -6 -2 -5 -13z"></path> <path d="M1380 1860 c-8 -5 -10 -10 -5 -10 6 0 17 5 25 10 8 5 11 10 5 10 -5 0 -17 -5 -25 -10z"></path> <path d="M1546 1843 c9 -37 14 -41 44 -32 14 4 19 7 12 8 -7 1 -20 8 -28 16 -14 13 -13 15 3 16 16 0 16 1 -2 9 -32 14 -36 12 -29 -17z"></path> <path d="M1604 1858 c-4 -7 -4 -10 1 -6 4 4 15 3 25 -2 12 -6 23 -5 36 6 18 15 18 15 -1 5 -12 -6 -26 -6 -37 0 -11 6 -19 5 -24 -3z"></path> <path d="M3284 1857 c3 -10 6 -21 6 -23 0 -2 7 -4 15 -4 8 0 15 5 15 11 0 5 -4 8 -9 4 -6 -3 -15 3 -21 12 -11 17 -11 17 -6 0z"></path> <path d="M4336 1854 c-11 -8 -16 -14 -10 -14 13 0 39 18 34 24 -3 2 -14 -2 -24 -10z"></path> <path d="M4448 1862 c7 -5 10 -16 6 -25 -4 -11 0 -19 10 -23 9 -3 13 -10 10 -15 -3 -5 1 -6 9 -3 12 4 12 10 -2 40 -8 18 -22 34 -31 34 -11 0 -12 -2 -2 -8z"></path> <path d="M4726 1853 c-9 -10 -24 -27 -32 -38 -13 -16 -15 -17 -10 -2 3 10 0 17 -7 17 -8 0 -12 -15 -11 -44 2 -53 9 -67 31 -59 11 4 14 3 9 -6 -4 -6 -16 -9 -26 -6 -16 5 -22 -3 -34 -46 -9 -29 -15 -53 -13 -53 1 -1 13 -7 27 -14 l25 -13 -24 21 c-17 15 -19 20 -8 20 9 0 19 4 22 10 4 6 -1 7 -12 3 -16 -6 -16 -5 -5 10 8 8 21 13 30 10 14 -4 15 -3 2 6 -12 8 -11 14 10 35 13 15 19 27 14 28 -5 0 -13 2 -19 3 -5 2 -14 3 -18 4 -4 0 3 16 16 34 25 32 60 97 54 97 -2 0 -11 -8 -21 -17z"></path> <path d="M4490 1849 c0 -5 5 -7 10 -4 6 3 10 8 10 11 0 2 -4 4 -10 4 -5 0 -10 -5 -10 -11z"></path> <path d="M1398 1806 c-45 -25 -79 -39 -81 -33 -2 6 -40 -12 -86 -41 -45 -29 -93 -52 -106 -52 -16 0 -25 -6 -25 -16 0 -12 5 -14 18 -9 24 11 65 12 78 3 6 -4 11 -2 11 6 0 10 -9 13 -26 10 -18 -4 -7 6 33 30 32 20 64 36 70 36 10 0 48 14 143 55 23 10 40 22 36 27 -3 6 6 3 20 -7 24 -15 25 -15 22 2 -2 10 -4 21 -4 26 -2 15 -29 6 -103 -37z"></path> <path d="M3330 1842 c0 -4 22 -7 50 -7 27 0 50 3 50 8 0 4 -22 7 -50 7 -27 0 -50 -3 -50 -8z"></path> <path d="M4425 1840 c-3 -5 -22 -8 -42 -5 -46 6 -31 -13 20 -25 32 -7 36 -5 40 16 4 24 -7 33 -18 14z"></path> <path d="M1235 1830 c3 -5 8 -10 11 -10 2 0 4 5 4 10 0 6 -5 10 -11 10 -5 0 -7 -4 -4 -10z"></path> <path d="M1352 1829 c2 -7 -10 -15 -27 -19 -26 -5 -27 -7 -11 -13 23 -9 66 26 47 38 -7 3 -10 1 -9 -6z"></path> <path d="M1598 1833 c6 -2 18 -2 25 0 6 3 1 5 -13 5 -14 0 -19 -2 -12 -5z"></path> <path d="M1708 1828 c8 -10 10 -23 6 -30 -6 -10 -3 -9 9 1 9 7 17 18 17 24 0 6 -3 7 -7 4 -3 -4 -13 -1 -22 6 -14 10 -14 10 -3 -5z"></path> <path d="M2520 1820 c0 -5 5 -10 10 -10 6 0 10 5 10 10 0 6 -4 10 -10 10 -5 0 -10 -4 -10 -10z"></path> <path d="M4328 1812 c5 -9 8 -25 7 -35 -3 -15 -1 -16 11 -6 25 20 40 -4 20 -32 -14 -21 -21 -19 -17 3 0 4 -6 5 -15 1 -9 -3 -12 -8 -5 -12 12 -8 3 -22 -26 -38 -31 -18 -38 -16 -22 5 13 15 12 16 -2 4 -9 -7 -23 -11 -30 -10 -9 2 -13 -7 -13 -25 1 -20 -3 -27 -13 -23 -8 3 -11 2 -8 -4 3 -5 -8 -16 -25 -25 -17 -9 -28 -20 -25 -25 3 -6 -1 -7 -9 -4 -9 4 -16 1 -16 -6 0 -7 -11 -10 -27 -7 -16 2 -22 2 -15 0 13 -5 16 -16 6 -26 -12 -11 -34 6 -34 27 -1 20 -1 20 -12 2 -8 -15 -7 -21 6 -28 9 -5 14 -13 11 -19 -6 -9 -59 13 -67 28 -3 5 -3 1 -1 -7 2 -11 -1 -9 -11 4 -8 10 -20 15 -26 11 -7 -4 -16 -2 -20 5 -5 8 -30 13 -64 13 -39 0 -53 4 -46 12 5 6 5 16 -2 25 -8 13 -9 12 -4 -2 3 -11 -2 -19 -14 -23 -20 -6 -122 9 -142 21 -7 4 -8 2 -4 -4 5 -8 -2 -12 -18 -12 -14 0 -26 5 -26 10 0 12 -50 33 -58 25 -3 -2 6 -8 18 -13 13 -5 19 -11 13 -15 -13 -8 -53 3 -53 14 0 5 -5 9 -10 9 -6 0 -6 -7 2 -19 9 -15 24 -19 82 -19 125 -2 350 -42 409 -74 17 -9 15 -13 -23 -49 -23 -22 -40 -43 -36 -46 3 -3 24 13 47 35 23 23 45 39 50 36 5 -3 6 3 2 12 -5 14 -2 16 15 12 12 -4 20 -3 17 1 -5 8 83 74 205 155 41 27 84 57 95 67 11 11 29 25 40 33 19 14 19 14 -7 13 -14 -1 -26 -6 -25 -11 1 -5 -4 -11 -11 -13 -7 -3 -11 1 -10 8 2 7 -1 14 -7 14 -21 3 -45 17 -40 25 3 4 -2 11 -10 14 -12 4 -13 2 -7 -12z m-59 -153 c-21 -13 -25 -11 -25 10 0 16 4 18 19 9 16 -8 17 -12 6 -19z"></path> <path d="M2550 1795 c0 -8 2 -15 4 -15 2 0 6 7 10 15 3 8 1 15 -4 15 -6 0 -10 -7 -10 -15z"></path> <path d="M3145 1800 c3 -5 8 -10 11 -10 2 0 4 5 4 10 0 6 -5 10 -11 10 -5 0 -7 -4 -4 -10z"></path> <path d="M2756 1787 c3 -10 9 -15 12 -12 3 3 0 11 -7 18 -10 9 -11 8 -5 -6z"></path> <path d="M1475 1781 c-3 -5 -1 -12 4 -15 5 -3 11 1 15 9 6 16 -9 21 -19 6z"></path> <path d="M2866 1775 c4 -8 13 -15 21 -15 12 0 12 2 -1 15 -8 8 -17 15 -20 15 -3 0 -3 -7 0 -15z"></path> <path d="M1730 1763 c0 -14 2 -15 9 -4 7 11 10 11 17 0 4 -7 3 -14 -3 -16 -13 -5 -6 -40 14 -68 15 -23 17 -16 3 19 -5 15 -6 28 0 31 13 8 -10 55 -27 55 -7 0 -13 -8 -13 -17z"></path> <path d="M1783 1769 c10 -6 17 -22 17 -39 0 -16 4 -31 9 -34 5 -4 8 2 6 11 -13 66 -16 73 -33 73 -16 -1 -16 -1 1 -11z"></path> <path d="M1820 1763 c0 -15 2 -16 10 -3 8 12 10 11 10 -7 0 -12 5 -25 10 -28 6 -3 10 -11 10 -16 0 -6 -4 -7 -10 -4 -5 3 -10 2 -10 -3 0 -14 28 -23 36 -11 4 6 11 5 22 -3 12 -10 16 -10 19 0 3 6 9 9 14 6 6 -3 3 10 -5 30 -8 20 -11 36 -7 36 9 0 31 -45 31 -65 0 -7 6 -15 12 -17 7 -3 13 -11 13 -19 0 -16 19 -24 21 -9 1 6 2 13 3 18 3 9 25 -40 23 -50 -1 -5 5 -8 14 -8 9 0 12 5 8 13 -46 74 -84 130 -84 122 0 -5 -9 1 -19 14 -21 27 -45 20 -35 -11 5 -17 3 -18 -15 -9 -12 7 -21 8 -21 3 0 -6 9 -12 20 -15 11 -3 20 -12 20 -21 0 -26 -39 3 -55 42 -15 34 -35 43 -35 15z m147 -65 c-3 -7 -5 -2 -5 12 0 14 2 19 5 13 2 -7 2 -19 0 -25z m27 -14 c3 -8 2 -12 -4 -9 -6 3 -10 10 -10 16 0 14 7 11 14 -7z"></path> <path d="M1860 1770 c0 -5 7 -7 15 -4 8 4 15 8 15 10 0 2 -7 4 -15 4 -8 0 -15 -4 -15 -10z"></path> <path d="M2920 1769 c0 -5 5 -7 10 -4 6 3 10 8 10 11 0 2 -4 4 -10 4 -5 0 -10 -5 -10 -11z"></path> <path d="M3620 1771 c0 -6 4 -13 10 -16 6 -3 7 1 4 9 -7 18 -14 21 -14 7z"></path> <path d="M1686 1753 c-6 -14 -5 -15 5 -6 7 7 10 15 7 18 -3 3 -9 -2 -12 -12z"></path> <path d="M2810 1761 c0 -4 11 -6 25 -3 14 2 25 6 25 8 0 2 -11 4 -25 4 -14 0 -25 -4 -25 -9z"></path> <path d="M1460 1750 c8 -5 20 -10 25 -10 6 0 3 5 -5 10 -8 5 -19 10 -25 10 -5 0 -3 -5 5 -10z"></path> <path d="M3338 1753 c7 -3 16 -2 19 1 4 3 -2 6 -13 5 -11 0 -14 -3 -6 -6z"></path> <path d="M1695 1729 c-4 -6 -5 -12 -2 -15 2 -3 7 2 10 11 7 17 1 20 -8 4z"></path> <path d="M2672 1679 c24 -50 33 -60 51 -57 56 8 8 118 -52 118 l-28 0 29 -61z m43 11 c-3 -5 -1 -11 5 -15 5 -3 10 -12 10 -18 -1 -7 -9 -2 -19 10 -10 12 -21 19 -25 16 -3 -4 -6 -2 -6 4 0 5 3 12 6 16 9 8 35 -4 29 -13z"></path> <path d="M2835 1731 c-3 -5 -2 -12 3 -15 5 -3 9 1 9 9 0 17 -3 19 -12 6z"></path> <path d="M1713 1713 c-4 -9 -1 -19 5 -21 7 -2 12 -10 12 -18 0 -8 5 -14 11 -14 7 0 5 10 -5 25 -9 14 -14 30 -11 35 3 6 4 10 0 10 -3 0 -9 -8 -12 -17z"></path> <path d="M3604 1718 c-4 -7 -3 -8 4 -4 7 4 19 -9 31 -33 12 -22 26 -43 32 -47 6 -3 3 5 -6 19 -9 15 -13 32 -9 38 4 7 3 9 -3 6 -6 -4 -13 2 -16 13 -6 22 -22 26 -33 8z"></path> <path d="M1235 1700 c-3 -6 1 -7 9 -4 18 7 21 14 7 14 -6 0 -13 -4 -16 -10z"></path> <path d="M1567 1703 c-4 -3 -7 -11 -7 -17 0 -6 5 -5 12 2 6 6 9 14 7 17 -3 3 -9 2 -12 -2z"></path> <path d="M2035 1688 c4 -13 18 -41 32 -62 22 -33 27 -37 35 -23 7 13 0 28 -29 62 -20 25 -39 45 -41 45 -2 0 0 -10 3 -22z m50 -58 c10 -11 16 -20 13 -20 -3 0 -13 9 -23 20 -10 11 -16 20 -13 20 3 0 13 -9 23 -20z"></path> <path d="M2972 1685 c0 -16 2 -22 5 -12 2 9 2 23 0 30 -3 6 -5 -1 -5 -18z"></path> <path d="M4480 1690 c6 -11 13 -20 16 -20 2 0 0 9 -6 20 -6 11 -13 20 -16 20 -2 0 0 -9 6 -20z"></path> <path d="M4411 1681 c-8 -5 -24 -8 -37 -6 -14 1 -21 -2 -17 -8 4 -6 0 -8 -10 -4 -9 3 -19 2 -22 -4 -4 -5 -3 -9 2 -8 29 5 34 -4 10 -17 -23 -12 -30 -34 -11 -34 3 0 2 5 -2 11 -4 8 1 9 17 4 16 -4 20 -3 11 3 -11 7 -10 10 3 16 9 3 13 11 9 18 -5 7 -2 9 7 6 8 -3 30 3 49 13 19 11 28 19 20 19 -8 0 -21 -4 -29 -9z"></path> <path d="M2528 1673 c7 -3 16 -2 19 1 4 3 -2 6 -13 5 -11 0 -14 -3 -6 -6z"></path> <path d="M3866 1671 c-4 -5 3 -7 14 -4 23 6 26 13 6 13 -8 0 -17 -4 -20 -9z"></path> <path d="M4606 1661 c-10 -11 -15 -25 -11 -31 4 -7 -2 -9 -18 -6 -38 7 -48 -7 -18 -29 20 -15 23 -15 12 -2 -8 10 -9 17 -3 17 6 0 14 -5 18 -11 4 -7 15 6 26 31 22 47 20 59 -6 31z"></path> <path d="M1800 1661 c0 -6 4 -13 10 -16 6 -3 7 1 4 9 -7 18 -14 21 -14 7z"></path> <path d="M3984 1658 c-4 -6 -3 -8 3 -5 6 4 18 -4 27 -18 9 -14 22 -25 28 -25 7 0 3 7 -8 15 -10 8 -15 15 -11 15 9 0 -18 30 -27 30 -3 0 -8 -5 -12 -12z"></path> <path d="M1264 1651 c23 -9 10 -19 -20 -16 -11 1 -21 -4 -21 -11 0 -7 4 -11 9 -8 4 3 18 7 29 9 12 3 24 6 26 9 9 9 -8 26 -25 25 -14 0 -14 -2 2 -8z"></path> <path d="M1640 1645 c0 -8 4 -15 10 -15 5 0 7 7 4 15 -4 8 -8 15 -10 15 -2 0 -4 -7 -4 -15z"></path> <path d="M4504 1645 c3 -8 -5 -12 -21 -12 -14 0 -29 -6 -33 -13 -4 -7 -13 -9 -19 -6 -6 4 -11 3 -11 -3 0 -6 -7 -7 -17 -4 -11 4 -14 3 -9 -5 5 -8 -4 -12 -28 -12 -20 0 -36 -4 -36 -10 0 -5 -6 -7 -13 -5 -7 3 -30 -4 -51 -15 -21 -10 -43 -17 -47 -14 -5 3 -14 2 -20 -2 -18 -11 13 -24 41 -17 105 25 310 107 310 124 0 4 -12 7 -26 7 -16 0 -23 -5 -20 -13z"></path> <path d="M2913 1640 c2 -8 14 -16 28 -17 19 -1 20 -1 4 4 -11 3 -24 10 -28 17 -6 7 -7 6 -4 -4z"></path> <path d="M3215 1640 c-15 -6 -11 -7 17 -7 23 1 33 4 25 9 -14 9 -16 9 -42 -2z"></path> <path d="M3340 1640 c-12 -7 -10 -9 7 -7 12 0 19 5 17 9 -6 10 -6 10 -24 -2z"></path> <path d="M3700 1640 c8 -5 20 -10 25 -10 6 0 3 5 -5 10 -8 5 -19 10 -25 10 -5 0 -3 -5 5 -10z"></path> <path d="M1840 1629 c0 -13 28 -18 33 -6 3 7 -3 13 -14 13 -11 0 -19 -3 -19 -7z"></path> <path d="M965 1621 c-3 -5 -2 -12 3 -15 5 -3 9 1 9 9 0 17 -3 19 -12 6z"></path> <path d="M1188 1623 c7 -3 16 -2 19 1 4 3 -2 6 -13 5 -11 0 -14 -3 -6 -6z"></path> <path d="M1995 1619 c-4 -6 -5 -12 -2 -15 2 -3 7 2 10 11 7 17 1 20 -8 4z"></path> <path d="M2590 1615 c0 -8 2 -15 4 -15 2 0 6 7 10 15 3 8 1 15 -4 15 -6 0 -10 -7 -10 -15z"></path> <path d="M3483 1623 c-13 -2 -23 -8 -23 -13 0 -5 14 -4 30 1 27 10 42 21 23 18 -5 -1 -18 -4 -30 -6z"></path> <path d="M1139 1603 c-13 -16 -12 -17 4 -4 9 7 17 15 17 17 0 8 -8 3 -21 -13z"></path> <path d="M3218 1613 c12 -2 30 -2 40 0 9 3 -1 5 -23 4 -22 0 -30 -2 -17 -4z"></path> <path d="M3323 1613 c9 -2 23 -2 30 0 6 3 -1 5 -18 5 -16 0 -22 -2 -12 -5z"></path> <path d="M3410 1610 c0 -5 7 -7 15 -4 8 4 15 8 15 10 0 2 -7 4 -15 4 -8 0 -15 -4 -15 -10z"></path> <path d="M3795 1610 c3 -5 8 -10 11 -10 2 0 4 5 4 10 0 6 -5 10 -11 10 -5 0 -7 -4 -4 -10z"></path> <path d="M2900 1600 c0 -5 4 -10 9 -10 6 0 13 5 16 10 3 6 -1 10 -9 10 -9 0 -16 -4 -16 -10z"></path> <path d="M2955 1600 c3 -5 8 -10 11 -10 2 0 4 5 4 10 0 6 -5 10 -11 10 -5 0 -7 -4 -4 -10z"></path> <path d="M3068 1603 c7 -3 16 -2 19 1 4 3 -2 6 -13 5 -11 0 -14 -3 -6 -6z"></path> <path d="M1081 1597 c2 -1 13 -9 24 -17 19 -14 19 -14 6 3 -7 9 -18 17 -24 17 -6 0 -8 -1 -6 -3z"></path> <path d="M2858 1593 c7 -3 16 -2 19 1 4 3 -2 6 -13 5 -11 0 -14 -3 -6 -6z"></path> <path d="M3110 1590 c-13 -8 -12 -10 3 -10 9 0 17 5 17 10 0 12 -1 12 -20 0z"></path> <path d="M4527 1586 c-4 -10 -1 -13 9 -9 15 6 19 23 5 23 -5 0 -11 -7 -14 -14z"></path> <path d="M4620 1591 c0 -5 7 -11 15 -15 8 -3 15 -1 15 3 0 5 -7 11 -15 15 -8 3 -15 1 -15 -3z"></path> <path d="M1149 1573 c-13 -17 -13 -17 6 -3 11 8 22 16 24 17 2 2 0 3 -6 3 -6 0 -17 -8 -24 -17z"></path> <path d="M1296 1582 c-2 -4 4 -8 14 -8 10 0 16 4 14 8 -3 4 -9 8 -14 8 -5 0 -11 -4 -14 -8z"></path> <path d="M2640 1581 c0 -5 7 -12 16 -15 14 -5 15 -4 4 9 -14 17 -20 19 -20 6z"></path> <path d="M4226 1581 c-4 -5 -2 -12 3 -15 5 -4 12 -2 15 3 4 5 2 12 -3 15 -5 4 -12 2 -15 -3z"></path> <path d="M1516 1567 c3 -10 9 -15 12 -12 3 3 0 11 -7 18 -10 9 -11 8 -5 -6z"></path> <path d="M903 1545 c0 -8 4 -12 9 -9 5 3 6 10 3 15 -9 13 -12 11 -12 -6z"></path> <path d="M2535 1550 c-19 -8 -19 -9 3 -9 12 -1 22 4 22 9 0 6 -1 10 -2 9 -2 0 -12 -4 -23 -9z"></path> <path d="M1525 1509 c-1 -31 7 -30 12 1 1 10 -1 21 -5 24 -4 2 -7 -9 -7 -25z"></path> <path d="M1165 1511 c-4 -7 0 -8 11 -4 11 4 15 3 10 -5 -3 -6 -2 -13 3 -16 5 -4 8 2 7 11 -3 20 -21 28 -31 14z"></path> <path d="M3620 1513 c-37 -5 -162 -34 -185 -44 -25 -10 32 -2 92 13 23 6 49 8 58 4 9 -3 13 -2 10 4 -3 5 16 10 42 12 27 2 39 5 28 8 -11 3 -31 4 -45 3z"></path> <path d="M4368 1513 c7 -3 16 -2 19 1 4 3 -2 6 -13 5 -11 0 -14 -3 -6 -6z"></path> <path d="M840 1499 c0 -5 5 -7 10 -4 6 3 10 8 10 11 0 2 -4 4 -10 4 -5 0 -10 -5 -10 -11z"></path> <path d="M3730 1500 c0 -5 5 -10 10 -10 6 0 10 5 10 10 0 6 -4 10 -10 10 -5 0 -10 -4 -10 -10z"></path> <path d="M3958 1503 c7 -3 16 -2 19 1 4 3 -2 6 -13 5 -11 0 -14 -3 -6 -6z"></path> <path d="M4155 1501 c3 -2 -2 -12 -11 -22 -9 -10 -14 -25 -10 -34 4 -12 0 -14 -18 -9 -14 3 -27 1 -31 -6 -6 -9 -10 -9 -16 1 -10 17 8 39 31 39 10 0 23 7 30 15 19 23 -12 19 -44 -6 -14 -11 -26 -18 -26 -15 0 4 -19 -7 -41 -24 -31 -22 -45 -27 -55 -19 -17 14 -7 39 14 32 13 -4 12 -2 -3 10 -19 15 -45 13 -45 -5 0 -5 5 -6 12 -2 7 5 9 2 5 -8 -3 -9 0 -21 6 -27 8 -8 8 -11 -2 -11 -13 0 -41 -24 -41 -35 0 -3 6 -3 13 1 8 5 8 2 -2 -9 -23 -28 -1 -19 46 19 35 29 48 34 73 29 74 -16 170 25 170 75 0 16 -6 20 -30 18 -16 -1 -27 -4 -25 -7z m-195 -106 c-7 -8 -18 -15 -24 -15 -6 0 -2 7 8 15 25 19 32 19 16 0z"></path> <path d="M1746 1473 c-6 -14 -5 -15 5 -6 7 7 10 15 7 18 -3 3 -9 -2 -12 -12z"></path> <path d="M3308 1463 c7 -3 16 -2 19 1 4 3 -2 6 -13 5 -11 0 -14 -3 -6 -6z"></path> <path d="M4225 1451 c-3 -5 -2 -12 3 -15 5 -3 9 1 9 9 0 17 -3 19 -12 6z"></path> <path d="M1709 1436 c6 -7 7 -17 3 -21 -4 -5 -1 -5 6 -1 6 4 12 3 12 -2 0 -5 7 -9 16 -9 15 0 15 2 -1 13 -9 7 -15 17 -12 21 3 5 -3 10 -14 10 -16 2 -18 -1 -10 -11z"></path> <path d="M3454 1434 c-18 -14 -18 -15 4 -4 12 6 22 13 22 15 0 8 -5 6 -26 -11z"></path> <path d="M800 1421 c0 -6 4 -13 10 -16 6 -3 7 1 4 9 -7 18 -14 21 -14 7z"></path> <path d="M2520 1426 c0 -2 7 -7 16 -10 8 -3 12 -2 9 4 -6 10 -25 14 -25 6z"></path> <path d="M3205 1405 c-39 -17 -21 -18 25 0 19 7 28 14 20 14 -8 0 -28 -6 -45 -14z"></path> <path d="M3107 1399 c7 -7 15 -10 18 -7 3 3 -2 9 -12 12 -14 6 -15 5 -6 -5z"></path> <path d="M3849 1383 c-8 -9 -9 -14 -3 -10 6 4 19 -2 29 -13 16 -18 16 -18 -4 -13 -13 3 -21 1 -21 -6 0 -7 5 -9 10 -6 16 10 11 -1 -7 -16 -11 -10 -14 -10 -9 -1 4 6 3 12 -2 12 -5 0 -12 -10 -15 -21 -4 -16 -11 -20 -24 -15 -9 4 -14 4 -10 0 4 -4 -13 -20 -38 -36 -48 -30 -75 -39 -37 -12 18 12 20 19 12 29 -8 10 -7 16 7 24 10 6 14 10 8 10 -5 0 -18 -6 -28 -13 -13 -10 -15 -15 -5 -19 9 -3 5 -13 -15 -33 l-28 -29 -25 28 c-13 15 -24 39 -24 53 0 15 -4 23 -10 19 -13 -8 -9 -47 5 -57 6 -5 4 -12 -5 -19 -13 -9 -13 -10 2 -6 9 3 22 -2 30 -10 11 -14 11 -16 -3 -11 -10 4 -16 1 -16 -8 0 -17 9 -18 25 -2 6 6 14 9 17 6 3 -3 -18 -19 -46 -37 -28 -17 -54 -30 -56 -27 -3 2 9 12 26 21 18 9 29 21 25 26 -4 6 -18 0 -35 -17 -16 -15 -32 -24 -36 -21 -3 4 -15 -1 -25 -10 -14 -13 -19 -14 -16 -3 2 9 -7 14 -27 16 -16 1 -24 0 -17 -3 6 -3 9 -10 6 -16 -5 -8 -2 -8 7 1 18 17 28 15 24 -5 -1 -11 -9 -17 -20 -15 -9 2 -14 -1 -11 -6 3 -5 -32 -30 -78 -56 -46 -26 -93 -58 -105 -72 -23 -26 -52 -24 -30 2 17 20 5 28 -21 14 -21 -11 -21 -12 -4 -31 20 -22 20 -21 -26 -39 -19 -7 -53 -25 -75 -40 -22 -14 -55 -32 -72 -39 -18 -7 -33 -17 -33 -22 0 -5 -7 -9 -16 -9 -8 0 -12 -4 -9 -10 10 -16 -6 -12 -26 6 -16 14 -22 14 -48 3 -32 -14 -44 -37 -13 -24 40 17 52 17 52 2 0 -8 -7 -17 -14 -20 -10 -4 -13 -1 -9 9 4 10 0 12 -11 8 -9 -3 -15 -14 -14 -22 2 -9 -3 -17 -9 -18 -7 -1 -18 -2 -24 -3 -5 0 -7 -6 -3 -13 8 -13 -12 -3 -38 20 -16 13 -20 13 -36 -1 -10 -10 -25 -17 -32 -17 -11 0 -11 -3 -2 -12 9 -9 15 -9 24 0 16 16 48 15 48 -2 0 -9 -8 -12 -25 -8 -20 3 -25 0 -25 -17 0 -12 -4 -20 -9 -16 -6 3 -20 -5 -32 -17 -12 -13 -18 -16 -14 -8 8 13 7 13 -11 0 -10 -8 -25 -21 -33 -28 -7 -7 -20 -11 -28 -8 -8 3 -12 2 -9 -2 3 -5 -10 -15 -29 -22 -19 -7 -37 -21 -41 -29 -5 -12 -13 -2 -31 34 -16 33 -23 42 -21 25 2 -14 8 -28 13 -33 13 -9 -13 -27 -30 -21 -6 3 -18 -3 -25 -13 -12 -15 -12 -16 0 -5 17 15 34 16 24 1 -3 -6 6 -3 22 7 15 11 25 14 22 8 -4 -6 -49 -34 -100 -63 -51 -29 -102 -61 -113 -71 -22 -20 -71 -21 -67 -2 2 10 -3 10 -18 2 -22 -12 -27 -22 -7 -14 8 3 20 -3 28 -12 13 -16 11 -17 -21 -11 -19 4 -29 3 -22 -1 8 -6 -1 -16 -30 -32 -24 -14 -47 -23 -51 -22 -5 1 -6 -2 -2 -8 3 -5 1 -10 -5 -10 -6 0 -47 -20 -90 -45 -68 -39 -84 -44 -101 -34 -16 8 -24 8 -33 -1 -8 -8 -6 -10 9 -5 19 6 19 6 2 -8 -13 -11 -15 -16 -5 -19 7 -3 -2 -8 -19 -12 -18 -4 -33 -12 -33 -17 0 -6 -9 -7 -21 -4 -14 5 -19 3 -15 -3 4 -7 -10 -16 -34 -23 -22 -7 -40 -15 -40 -19 0 -9 -40 -23 -59 -20 -7 1 -10 -3 -6 -9 3 -6 -1 -11 -9 -11 -9 0 -16 -4 -16 -10 0 -5 -5 -10 -11 -10 -6 0 -24 -9 -39 -20 -17 -12 -31 -16 -35 -11 -3 6 -33 20 -66 32 -51 19 -58 24 -42 32 10 6 64 41 121 79 56 37 104 68 106 68 10 0 -2 -35 -12 -36 -7 -1 -18 -2 -24 -3 -9 -1 -9 -4 2 -11 9 -5 19 -5 25 0 6 5 22 8 34 5 18 -3 21 -2 11 9 -8 11 -8 16 2 20 7 3 3 3 -9 0 -18 -4 -21 -1 -18 15 2 12 2 21 -1 21 -3 0 -68 -42 -145 -93 -104 -69 -135 -94 -122 -98 10 -4 37 -13 61 -20 46 -13 77 -39 48 -39 -9 0 -16 -4 -16 -10 0 -5 3 -10 8 -10 7 0 147 69 207 103 17 9 57 29 90 44 33 15 89 43 125 63 36 20 110 60 165 89 55 29 103 57 106 63 3 5 13 10 21 12 37 5 1054 592 1051 606 -3 11 56 54 64 47 2 -3 -9 -13 -27 -22 -18 -9 -29 -19 -27 -22 6 -5 134 69 337 195 196 121 237 150 237 166 0 10 -6 15 -13 12 -14 -6 -37 17 -27 27 3 4 4 7 1 7 -3 0 -12 -8 -19 -17z m-316 -265 c-38 -26 -83 -50 -83 -44 0 3 20 17 45 32 25 14 43 30 39 35 -3 5 2 6 11 3 14 -6 11 -10 -12 -26z m-1568 -888 c-3 -5 -11 -10 -16 -10 -6 0 -7 5 -4 10 3 6 11 10 16 10 6 0 7 -4 4 -10z"></path> <path d="M3136 1381 c-4 -5 3 -7 14 -4 23 6 26 13 6 13 -8 0 -17 -4 -20 -9z"></path> <path d="M3520 1375 c-19 -7 -45 -14 -58 -14 -16 -1 -21 -5 -16 -13 6 -10 5 -10 -8 -1 -8 7 -17 11 -20 8 -2 -2 -35 -9 -74 -15 -148 -21 -250 -39 -279 -49 -41 -13 -19 -13 46 0 30 6 70 12 89 14 19 3 57 9 85 14 27 5 51 8 52 7 4 -3 -90 -64 -110 -72 -24 -9 -21 -31 6 -37 20 -5 20 -5 5 7 -15 11 -11 16 40 46 31 19 68 42 81 52 24 18 56 25 47 9 -7 -11 45 -1 61 11 7 5 17 7 23 3 5 -3 10 -1 10 4 0 6 11 11 24 11 13 0 26 6 29 13 3 9 8 8 22 -3 10 -8 21 -14 24 -12 3 2 7 -2 10 -9 2 -7 -1 -9 -9 -4 -9 5 -11 4 -6 -3 11 -19 26 -14 26 8 0 13 -10 24 -26 30 -30 12 -30 12 -74 -5z"></path> <path d="M3105 1370 c-3 -5 -14 -10 -24 -10 -9 0 -26 -6 -37 -14 -15 -12 -10 -12 29 1 26 8 47 19 47 24 0 12 -7 11 -15 -1z"></path> <path d="M2719 1333 c-12 -16 -12 -17 2 -6 9 7 20 9 24 5 5 -4 5 -1 1 6 -9 16 -11 15 -27 -5z"></path> <path d="M3955 1341 c-3 -5 -2 -12 3 -15 5 -3 9 1 9 9 0 17 -3 19 -12 6z"></path> <path d="M3030 1310 c-9 -6 -10 -10 -3 -10 6 0 15 5 18 10 8 12 4 12 -15 0z"></path> <path d="M3683 1303 c0 -8 6 -9 19 -2 10 5 18 11 18 12 0 2 -8 3 -18 3 -10 0 -19 -6 -19 -13z"></path> <path d="M3766 1288 c5 -8 1 -9 -12 -4 -14 5 -16 4 -7 -5 6 -6 16 -8 22 -5 14 9 14 26 0 26 -5 0 -7 -5 -3 -12z"></path> <path d="M3883 1265 c0 -8 4 -12 9 -9 5 3 6 10 3 15 -9 13 -12 11 -12 -6z"></path> <path d="M3110 1260 c-18 -12 -2 -12 25 0 13 6 15 9 5 9 -8 0 -22 -4 -30 -9z"></path> <path d="M3855 1261 c-3 -5 -2 -12 3 -15 5 -3 9 1 9 9 0 17 -3 19 -12 6z"></path> <path d="M2649 1238 c-9 -30 -6 -37 12 -28 23 13 25 22 2 13 -11 -4 -14 -3 -9 5 4 7 5 12 2 12 -3 0 -6 -1 -7 -2z"></path> <path d="M2695 1220 c-3 -6 1 -7 9 -4 18 7 21 14 7 14 -6 0 -13 -4 -16 -10z"></path> <path d="M3164 1221 c3 -5 -7 -14 -23 -21 -32 -13 -48 -37 -25 -37 7 0 11 4 9 8 -7 10 25 20 38 12 7 -3 9 -3 5 2 -4 4 3 16 15 26 l22 18 -23 1 c-13 0 -21 -4 -18 -9z"></path> <path d="M3203 1175 c0 -7 6 -11 14 -8 7 3 13 6 13 8 0 2 -6 5 -13 8 -8 3 -14 -1 -14 -8z"></path> <path d="M2938 1173 c7 -3 16 -2 19 1 4 3 -2 6 -13 5 -11 0 -14 -3 -6 -6z"></path> <path d="M3063 1153 c-27 -27 -45 -30 -37 -5 5 14 4 15 -5 2 -9 -12 -12 -13 -20 -1 -7 11 -10 11 -15 0 -5 -11 -7 -11 -12 -1 -3 6 -10 12 -15 12 -6 0 -8 -4 -4 -9 3 -5 -3 -12 -12 -14 -10 -3 -1 -4 19 -3 20 2 42 0 48 -4 7 -4 -65 -56 -176 -126 -103 -65 -224 -142 -268 -170 -65 -41 -84 -49 -96 -40 -13 9 -13 9 -3 -5 11 -13 9 -18 -11 -27 -34 -15 -51 -48 -29 -56 9 -4 18 -4 21 -1 3 3 1 5 -5 5 -5 0 -10 7 -10 15 0 8 4 15 8 15 5 0 43 24 86 53 43 29 102 66 130 83 29 16 53 32 53 37 0 4 5 7 11 7 6 0 54 29 108 64 162 106 215 139 229 139 6 0 10 3 7 5 -3 3 3 10 12 17 8 6 14 16 12 21 -2 5 -14 -1 -26 -13z"></path> <path d="M3095 1132 c-5 -4 -11 -14 -13 -22 -2 -8 0 -12 4 -8 4 4 20 -4 36 -17 16 -14 35 -25 41 -26 7 0 20 -2 29 -4 10 -2 20 0 23 5 7 11 -24 22 -37 13 -7 -4 -8 -1 -3 7 6 10 4 12 -8 7 -8 -3 -21 1 -27 8 -7 8 -16 13 -20 10 -5 -3 -12 0 -16 6 -3 6 0 15 7 20 8 5 10 9 4 9 -5 0 -14 -4 -20 -8z"></path> <path d="M2810 1111 c-23 -6 -23 -8 -6 -14 11 -4 22 -4 25 1 3 5 13 12 21 15 13 5 13 5 0 5 -8 0 -26 -3 -40 -7z"></path> <path d="M2755 1090 c-19 -8 -19 -9 3 -9 12 -1 22 4 22 9 0 6 -1 10 -2 9 -2 0 -12 -4 -23 -9z"></path> <path d="M4472 1074 c10 -10 20 -16 22 -13 3 3 -5 11 -17 18 -21 13 -21 12 -5 -5z"></path> <path d="M2860 1070 c-8 -5 -10 -10 -5 -10 6 0 -1 -7 -15 -15 -28 -16 -19 -21 9 -5 10 5 21 16 25 25 6 18 6 18 -14 5z"></path> <path d="M4518 1043 c7 -3 16 -2 19 1 4 3 -2 6 -13 5 -11 0 -14 -3 -6 -6z"></path> <path d="M2680 1030 c-18 -12 -2 -12 25 0 13 6 15 9 5 9 -8 0 -22 -4 -30 -9z"></path> <path d="M3484 1024 c-18 -14 -18 -15 4 -4 12 6 22 13 22 15 0 8 -5 6 -26 -11z"></path> <path d="M2565 1018 c-60 -21 -71 -27 -35 -21 39 6 103 32 80 31 -8 0 -28 -5 -45 -10z"></path> <path d="M2930 1026 c0 -2 7 -7 16 -10 8 -3 12 -2 9 4 -6 10 -25 14 -25 6z"></path> <path d="M3439 1013 c-13 -16 -12 -17 4 -4 9 7 17 15 17 17 0 8 -8 3 -21 -13z"></path> <path d="M2640 993 c-8 -2 -44 -18 -79 -34 -35 -17 -70 -28 -78 -25 -8 3 -11 1 -8 -4 3 -6 -1 -10 -9 -10 -8 0 -22 -7 -30 -16 -9 -8 -22 -12 -28 -8 -10 5 -10 4 -2 -5 8 -9 35 0 110 35 54 26 115 53 134 60 32 12 23 19 -10 7z"></path> <path d="M2470 956 c0 -2 7 -6 15 -10 8 -3 15 -1 15 4 0 6 -7 10 -15 10 -8 0 -15 -2 -15 -4z"></path> <path d="M2834 943 c1 -7 4 -14 7 -15 2 -2 3 -1 2 1 -2 2 4 9 13 15 13 10 13 12 -4 12 -11 0 -19 -6 -18 -13z"></path> <path d="M2428 945 c-2 -3 -18 -6 -34 -8 -16 -2 -42 -11 -59 -21 -27 -15 -27 -16 -5 -10 47 12 120 36 120 40 0 6 -16 5 -22 -1z"></path> <path d="M2120 905 c-18 -22 -6 -29 22 -14 12 7 27 12 31 11 5 -1 5 3 2 9 -5 8 -10 8 -18 0 -14 -14 -30 -14 -22 -1 10 15 -1 12 -15 -5z"></path> <path d="M2358 883 c6 -2 18 -2 25 0 6 3 1 5 -13 5 -14 0 -19 -2 -12 -5z"></path> <path d="M2705 871 c-3 -5 -2 -12 3 -15 5 -3 9 1 9 9 0 17 -3 19 -12 6z"></path> <path d="M3255 870 c-3 -6 1 -7 9 -4 18 7 21 14 7 14 -6 0 -13 -4 -16 -10z"></path> <path d="M2258 837 c-48 -26 -43 -32 8 -10 21 9 46 16 54 14 13 -2 13 -1 0 8 -19 13 -17 13 -62 -12z"></path> <path d="M3225 850 c3 -5 8 -10 11 -10 2 0 4 5 4 10 0 6 -5 10 -11 10 -5 0 -7 -4 -4 -10z"></path> <path d="M2437 823 c3 -7 9 -13 15 -13 5 0 7 4 4 9 -4 5 0 11 6 14 7 3 3 4 -8 4 -14 -1 -20 -6 -17 -14z"></path> <path d="M3095 821 c-3 -5 -2 -12 3 -15 5 -3 9 1 9 9 0 17 -3 19 -12 6z"></path> <path d="M2826 803 c-6 -14 -5 -15 5 -6 7 7 10 15 7 18 -3 3 -9 -2 -12 -12z"></path> <path d="M2615 800 c-3 -5 0 -10 7 -10 10 0 9 -3 -2 -11 -12 -8 -12 -10 -1 -7 8 2 15 12 17 21 2 19 -11 23 -21 7z"></path> <path d="M3105 780 c3 -5 8 -10 11 -10 2 0 4 5 4 10 0 6 -5 10 -11 10 -5 0 -7 -4 -4 -10z"></path> <path d="M3050 770 c0 -5 5 -10 11 -10 5 0 7 5 4 10 -3 6 -8 10 -11 10 -2 0 -4 -4 -4 -10z"></path> <path d="M1920 736 c7 -7 13 -7 20 0 6 6 3 10 -10 10 -13 0 -16 -4 -10 -10z"></path> <path d="M2285 740 c-3 -5 -1 -10 4 -10 6 0 11 5 11 10 0 6 -2 10 -4 10 -3 0 -8 -4 -11 -10z"></path> <path d="M2311 746 c9 -8 99 -13 99 -5 0 5 -23 9 -52 9 -28 0 -49 -2 -47 -4z"></path> <path d="M2540 730 c-13 -8 -12 -10 4 -10 12 0 16 -5 12 -15 -3 -8 -1 -15 5 -15 6 0 7 -5 4 -10 -4 -6 -11 -7 -17 -4 -7 5 -8 2 -3 -5 6 -10 10 -10 22 1 10 11 11 21 4 41 -12 31 -11 30 -31 17z"></path> <path d="M2196 721 c-11 -4 -15 -10 -10 -13 5 -2 20 1 34 8 26 14 8 18 -24 5z"></path> <path d="M2070 710 c0 -5 5 -10 11 -10 5 0 7 5 4 10 -3 6 -8 10 -11 10 -2 0 -4 -4 -4 -10z"></path> <path d="M2108 713 c7 -3 16 -2 19 1 4 3 -2 6 -13 5 -11 0 -14 -3 -6 -6z"></path> <path d="M2126 700 c-22 -11 -44 -20 -49 -20 -16 0 -300 -140 -332 -164 -16 -12 -55 -37 -85 -55 -30 -19 -57 -37 -60 -40 -3 -4 -20 -17 -38 -30 -17 -12 -44 -38 -59 -57 -25 -33 -25 -36 -9 -52 13 -13 35 -17 91 -17 79 0 94 9 17 11 -86 2 -93 4 -86 16 4 7 3 8 -4 4 -7 -4 -12 -2 -12 5 0 22 96 103 180 153 44 26 80 52 80 58 0 5 7 7 16 4 8 -3 13 -2 10 2 -3 5 10 15 27 24 64 32 146 68 156 68 6 0 11 5 11 11 0 5 5 7 10 4 6 -3 10 -2 10 3 0 6 10 8 22 4 14 -3 19 -1 14 6 -5 8 -1 10 10 5 12 -4 15 -3 10 6 -5 8 -3 11 5 10 18 -3 65 17 74 30 3 6 11 11 16 11 6 0 7 -4 4 -10 -4 -6 1 -7 11 -3 11 4 13 8 6 11 -7 2 -10 8 -6 13 7 12 6 12 -40 -11z"></path> <path d="M2935 700 c10 -11 20 -20 23 -20 3 0 -3 9 -13 20 -10 11 -20 20 -23 20 -3 0 3 -9 13 -20z"></path> <path d="M2035 700 c3 -5 11 -10 16 -10 6 0 7 5 4 10 -3 6 -11 10 -16 10 -6 0 -7 -4 -4 -10z"></path> <path d="M2726 697 c3 -10 9 -15 12 -12 3 3 0 11 -7 18 -10 9 -11 8 -5 -6z"></path> <path d="M1333 693 c4 -3 35 -7 68 -9 37 -1 56 2 48 7 -16 10 -126 12 -116 2z"></path> <path d="M1498 693 c7 -3 16 -2 19 1 4 3 -2 6 -13 5 -11 0 -14 -3 -6 -6z"></path> <path d="M1790 685 c0 -17 -16 -20 -25 -5 -3 6 -11 10 -18 10 -6 0 -2 -7 10 -15 20 -14 25 -14 55 5 l33 20 -27 0 c-18 0 -28 -5 -28 -15z"></path> <path d="M2896 692 c-2 -4 4 -8 14 -8 10 0 16 4 14 8 -3 4 -9 8 -14 8 -5 0 -11 -4 -14 -8z"></path> <path d="M149 681 c12 -8 12 -10 0 -14 -8 -2 -5 -3 6 -1 79 14 127 15 155 4 22 -9 34 -10 42 -2 8 8 5 9 -11 5 -12 -3 -21 -1 -21 6 0 7 -31 11 -92 11 -58 0 -88 -4 -79 -9z"></path> <path d="M382 675 c-7 -8 -8 -15 -3 -15 5 0 13 5 17 11 3 6 15 9 25 6 11 -3 17 -1 13 4 -8 14 -37 10 -52 -6z"></path> <path d="M621 679 c7 -4 17 -5 21 -2 5 2 16 -1 25 -9 14 -11 16 -11 8 1 -6 11 -1 13 24 9 17 -2 31 -1 31 4 0 5 -27 8 -61 7 -34 -1 -55 -5 -48 -10z"></path> <path d="M747 680 c2 -3 19 -6 36 -7 18 -1 47 -4 65 -6 18 -2 34 -1 36 2 2 3 73 7 157 9 85 2 155 5 158 8 2 2 -68 4 -157 4 -123 0 -162 -3 -162 -12 0 -10 -3 -9 -9 1 -6 9 -11 10 -15 2 -4 -6 -12 -11 -17 -11 -6 0 -7 4 -4 10 3 6 -14 9 -44 7 -27 -1 -47 -4 -44 -7z"></path> <path d="M1233 683 c15 -2 39 -2 55 0 15 2 2 4 -28 4 -30 0 -43 -2 -27 -4z"></path> <path d="M1590 680 c-9 -6 -10 -10 -3 -10 6 0 15 5 18 10 8 12 4 12 -15 0z"></path> <path d="M1648 683 c6 -2 18 -2 25 0 6 3 1 5 -13 5 -14 0 -19 -2 -12 -5z"></path> <path d="M2426 682 c-2 -4 0 -14 6 -22 8 -12 9 -12 5 2 -3 9 -1 19 6 22 9 3 9 5 0 5 -6 1 -14 -3 -17 -7z"></path> <path d="M3078 683 c6 -2 18 -2 25 0 6 3 1 5 -13 5 -14 0 -19 -2 -12 -5z"></path> <path d="M3303 683 c9 -2 23 -2 30 0 6 3 -1 5 -18 5 -16 0 -22 -2 -12 -5z"></path> <path d="M3814 679 c16 -4 36 -4 44 0 10 6 0 9 -29 9 -40 0 -41 -1 -15 -9z"></path> <path d="M3745 670 c-3 -5 -1 -10 4 -10 6 0 11 5 11 10 0 6 -2 10 -4 10 -3 0 -8 -4 -11 -10z"></path> <path d="M5208 663 c7 -3 16 -2 19 1 4 3 -2 6 -13 5 -11 0 -14 -3 -6 -6z"></path> <path d="M5298 663 c12 -2 32 -2 45 0 12 2 2 4 -23 4 -25 0 -35 -2 -22 -4z"></path> <path d="M5448 663 c7 -3 16 -2 19 1 4 3 -2 6 -13 5 -11 0 -14 -3 -6 -6z"></path> <path d="M5518 658 c6 -6 18 -8 28 -6 14 3 12 5 -9 10 -19 3 -25 2 -19 -4z"></path> <path d="M5608 663 c6 -2 18 -2 25 0 6 3 1 5 -13 5 -14 0 -19 -2 -12 -5z"></path> <path d="M5778 663 c6 -2 18 -2 25 0 6 3 1 5 -13 5 -14 0 -19 -2 -12 -5z"></path> <path d="M5868 663 c12 -2 30 -2 40 0 9 3 -1 5 -23 4 -22 0 -30 -2 -17 -4z"></path> <path d="M795 650 c-19 -8 -19 -9 3 -9 12 -1 22 4 22 9 0 6 -1 10 -2 9 -2 0 -12 -4 -23 -9z"></path> <path d="M350 639 c0 -5 5 -7 10 -4 6 3 10 8 10 11 0 2 -4 4 -10 4 -5 0 -10 -5 -10 -11z"></path> <path d="M835 637 c-10 -7 -26 -18 -35 -26 -13 -13 -13 -14 5 -7 11 5 29 9 40 10 25 1 45 14 45 29 0 8 -3 8 -12 -1 -15 -15 -32 -16 -23 -2 8 12 5 12 -20 -3z"></path> <path d="M992 634 c10 -10 20 -15 24 -12 3 4 -5 12 -18 18 -22 12 -22 12 -6 -6z"></path> <path d="M1269 639 c-10 -6 -7 -9 14 -9 29 0 35 5 14 13 -8 3 -20 1 -28 -4z"></path> <path d="M395 620 c1 -9 -5 -17 -14 -18 -54 -6 -91 -15 -91 -22 0 -10 54 -5 100 10 19 6 95 13 168 15 168 6 241 14 218 27 -9 5 -22 6 -28 2 -7 -4 -64 -9 -128 -11 -63 -1 -138 -5 -167 -9 -39 -5 -52 -3 -56 7 -3 9 -3 9 -2 -1z"></path> <path d="M2110 630 c-13 -8 -12 -10 3 -10 9 0 17 5 17 10 0 12 -1 12 -20 0z"></path> <path d="M2420 632 c0 -6 -20 -32 -45 -59 -24 -26 -45 -52 -45 -58 0 -10 60 54 87 93 9 12 13 25 9 29 -3 3 -6 1 -6 -5z"></path> <path d="M936 615 c4 -8 8 -15 10 -15 2 0 4 7 4 15 0 8 -4 15 -10 15 -5 0 -7 -7 -4 -15z"></path> <path d="M1385 623 c-36 -9 -36 -19 0 -15 19 2 32 8 29 13 -3 5 -6 8 -7 8 -1 -1 -11 -3 -22 -6z"></path> <path d="M1435 620 c-3 -5 -1 -10 4 -10 6 0 11 5 11 10 0 6 -2 10 -4 10 -3 0 -8 -4 -11 -10z"></path> <path d="M1568 623 c7 -3 16 -2 19 1 4 3 -2 6 -13 5 -11 0 -14 -3 -6 -6z"></path> <path d="M2030 620 c-9 -5 -9 -9 -1 -14 6 -4 11 -2 11 4 0 7 8 9 19 5 11 -3 22 -2 24 2 7 10 -37 13 -53 3z"></path> <path d="M1613 613 c9 -2 23 -2 30 0 6 3 -1 5 -18 5 -16 0 -22 -2 -12 -5z"></path> <path d="M1498 603 c7 -3 16 -2 19 1 4 3 -2 6 -13 5 -11 0 -14 -3 -6 -6z"></path> <path d="M229 589 c-10 -6 -7 -9 14 -9 29 0 35 5 14 13 -8 3 -20 1 -28 -4z"></path> <path d="M1931 580 c-69 -39 -68 -54 2 -18 23 11 53 24 67 29 24 7 24 7 -5 8 -16 0 -45 -9 -64 -19z"></path> <path d="M2160 588 c0 -9 -6 -19 -12 -21 -10 -4 -10 -6 0 -6 14 -1 28 26 18 36 -3 4 -6 -1 -6 -9z"></path> <path d="M1637 579 c7 -7 15 -10 18 -7 3 3 -2 9 -12 12 -14 6 -15 5 -6 -5z"></path> <path d="M2431 574 c0 -11 3 -14 6 -6 3 7 2 16 -1 19 -3 4 -6 -2 -5 -13z"></path> <path d="M85 570 c4 -6 11 -8 16 -5 14 9 11 15 -7 15 -8 0 -12 -5 -9 -10z"></path> <path d="M1518 563 c7 -3 16 -2 19 1 4 3 -2 6 -13 5 -11 0 -14 -3 -6 -6z"></path> <path d="M3445 560 c3 -5 8 -10 11 -10 2 0 4 5 4 10 0 6 -5 10 -11 10 -5 0 -7 -4 -4 -10z"></path> <path d="M835 550 c-3 -5 3 -10 15 -10 12 0 18 5 15 10 -3 6 -10 10 -15 10 -5 0 -12 -4 -15 -10z"></path> <path d="M938 553 c7 -3 16 -2 19 1 4 3 -2 6 -13 5 -11 0 -14 -3 -6 -6z"></path> <path d="M310 530 c12 -7 130 -4 138 4 2 3 -30 5 -73 4 -42 0 -71 -4 -65 -8z"></path> <path d="M508 533 c7 -3 16 -2 19 1 4 3 -2 6 -13 5 -11 0 -14 -3 -6 -6z"></path> <path d="M555 530 c-3 -6 1 -7 9 -4 18 7 21 14 7 14 -6 0 -13 -4 -16 -10z"></path> <path d="M795 530 c-3 -6 1 -7 9 -4 18 7 21 14 7 14 -6 0 -13 -4 -16 -10z"></path> <path d="M1840 530 c13 -8 13 -10 -1 -10 -9 0 -22 -7 -29 -15 -7 -8 -17 -12 -23 -8 -5 3 -7 1 -3 -5 3 -5 1 -12 -6 -14 -6 -2 -12 -12 -14 -21 -1 -9 2 -15 7 -11 5 3 7 9 4 14 -3 5 3 11 13 14 28 9 83 52 75 59 -3 4 -13 7 -22 7 -14 0 -14 -2 -1 -10z"></path> <path d="M2018 533 c7 -3 16 -2 19 1 4 3 -2 6 -13 5 -11 0 -14 -3 -6 -6z"></path> <path d="M218 523 c7 -3 16 -2 19 1 4 3 -2 6 -13 5 -11 0 -14 -3 -6 -6z"></path> <path d="M1985 500 c-16 -7 -17 -9 -3 -9 9 -1 20 4 23 9 7 11 7 11 -20 0z"></path> <path d="M2545 501 c-3 -5 -2 -12 3 -15 5 -3 9 1 9 9 0 17 -3 19 -12 6z"></path> <path d="M2050 490 c-9 -6 -10 -10 -3 -10 6 0 15 5 18 10 8 12 4 12 -15 0z"></path> <path d="M2298 493 c7 -3 16 -2 19 1 4 3 -2 6 -13 5 -11 0 -14 -3 -6 -6z"></path> <path d="M1816 457 c-16 -12 -16 -13 2 -13 10 0 19 6 19 13 0 7 -1 13 -2 13 -1 0 -9 -6 -19 -13z"></path> <path d="M1888 463 c7 -3 16 -2 19 1 4 3 -2 6 -13 5 -11 0 -14 -3 -6 -6z"></path> <path d="M1976 454 c-11 -8 -16 -14 -10 -14 13 0 39 18 34 24 -3 2 -14 -2 -24 -10z"></path> <path d="M2300 460 c0 -5 7 -10 16 -10 8 0 12 5 9 10 -3 6 -10 10 -16 10 -5 0 -9 -4 -9 -10z"></path> <path d="M1865 415 c-16 -7 -23 -14 -15 -14 8 0 29 6 45 14 17 7 23 14 15 14 -8 0 -28 -6 -45 -14z"></path> <path d="M2170 419 c0 -5 5 -7 10 -4 6 3 10 8 10 11 0 2 -4 4 -10 4 -5 0 -10 -5 -10 -11z"></path> <path d="M2118 399 c-49 -25 -49 -34 -1 -14 40 17 49 23 42 29 -2 2 -21 -5 -41 -15z"></path> <path d="M1785 400 c-3 -5 -2 -10 4 -10 5 0 13 5 16 10 3 6 2 10 -4 10 -5 0 -13 -4 -16 -10z"></path> <path d="M1988 353 c6 -2 18 -2 25 0 6 3 1 5 -13 5 -14 0 -19 -2 -12 -5z"></path> <path d="M1936 338 c3 -4 9 -8 15 -8 5 0 9 4 9 8 0 5 -7 9 -15 9 -8 0 -12 -4 -9 -9z"></path> <path d="M2074 330 c0 -13 4 -16 10 -10 7 7 7 13 0 20 -6 6 -10 3 -10 -10z"></path> <path d="M1900 336 c0 -2 7 -7 16 -10 8 -3 12 -2 9 4 -6 10 -25 14 -25 6z"></path> <path d="M1858 323 c6 -2 18 -2 25 0 6 3 1 5 -13 5 -14 0 -19 -2 -12 -5z"></path> <path d="M1958 313 c7 -3 16 -2 19 1 4 3 -2 6 -13 5 -11 0 -14 -3 -6 -6z"></path> <path d="M1570 237 c-35 -29 -52 -55 -39 -63 7 -4 10 -3 5 4 -3 5 -3 12 1 14 10 4 58 58 52 58 -2 0 -11 -6 -19 -13z"></path> <path d="M1445 230 c-3 -6 1 -7 9 -4 18 7 21 14 7 14 -6 0 -13 -4 -16 -10z"></path> <path d="M1475 220 c-3 -6 1 -7 9 -4 18 7 21 14 7 14 -6 0 -13 -4 -16 -10z"></path> <path d="M1200 181 c-19 -16 -32 -32 -29 -36 4 -3 19 5 34 19 16 15 32 26 36 26 5 0 9 5 9 10 0 17 -14 11 -50 -19z"></path> <path d="M5630 179 c0 -5 5 -7 10 -4 6 3 10 8 10 11 0 2 -4 4 -10 4 -5 0 -10 -5 -10 -11z"></path> <path d="M5686 164 c-5 -14 -4 -15 9 -4 17 14 19 20 6 20 -5 0 -12 -7 -15 -16z"></path> <path d="M5639 143 c-13 -17 -13 -17 6 -3 11 8 22 16 24 17 2 2 0 3 -6 3 -6 0 -17 -8 -24 -17z"></path> <path d="M5790 140 c0 -11 4 -20 9 -20 5 0 7 9 4 20 -3 11 -7 20 -9 20 -2 0 -4 -9 -4 -20z"></path> <path d="M1142 136 c-38 -32 -131 -131 -127 -135 3 -2 18 8 34 23 16 15 32 28 35 27 21 -4 28 2 11 9 l-20 9 20 0 c32 2 80 45 69 63 -7 12 -12 13 -22 4z"></path> <path d="M5653 113 c4 -3 1 -13 -6 -21 -10 -13 -9 -14 11 -3 22 12 22 31 0 31 -6 0 -8 -3 -5 -7z"></path> <path d="M5896 101 c5 -5 20 -12 34 -16 24 -7 24 -7 5 9 -21 16 -56 23 -39 7z"></path> <path d="M5965 100 c3 -5 8 -10 11 -10 2 0 4 5 4 10 0 6 -5 10 -11 10 -5 0 -7 -4 -4 -10z"></path> <path d="M1159 81 c-13 -11 -19 -20 -14 -20 14 0 50 28 43 34 -3 3 -16 -3 -29 -14z"></path> <path d="M1570 96 c0 -2 7 -7 16 -10 8 -3 12 -2 9 4 -6 10 -25 14 -25 6z"></path> <path d="M1293 83 c9 -2 23 -2 30 0 6 3 -1 5 -18 5 -16 0 -22 -2 -12 -5z"></path> <path d="M1358 83 c6 -2 18 -2 25 0 6 3 1 5 -13 5 -14 0 -19 -2 -12 -5z"></path> <path d="M1453 63 c4 -3 1 -13 -6 -22 -11 -14 -10 -14 5 -2 16 12 16 31 1 31 -4 0 -3 -3 0 -7z"></path> <path d="M5965 60 c-3 -5 -1 -10 4 -10 6 0 11 5 11 10 0 6 -2 10 -4 10 -3 0 -8 -4 -11 -10z"></path> <path d="M1425 10 c-3 -5 -1 -10 4 -10 6 0 11 5 11 10 0 6 -2 10 -4 10 -3 0 -8 -4 -11 -10z"></path> </g> </svg>